<svg xmlns="http://www.w3.org/2000/svg" xmlns:xlink="http://www.w3.org/1999/xlink" version="1.1" x="0px" y="0px" viewBox="0 0 100 125" enable-background="new 0 0 100 100" xml:space="preserve"><rect fill="none" width="100" height="100"/><g><g><g><g><path d="M45.873,90.672c0,0,0.008-0.257,0.023-0.739c0.014-0.481,0.03-1.189,0.048-2.098c0.018-0.908,0.034-2.016,0.066-3.297      c0.016-0.641,0.037-1.324,0.066-2.048s0.068-1.486,0.123-2.285c0.055-0.798,0.127-1.633,0.226-2.496      c0.098-0.864,0.223-1.759,0.385-2.675c0.082-0.459,0.173-0.923,0.275-1.39c0.05-0.234,0.105-0.47,0.162-0.706      c0.057-0.235,0.116-0.473,0.179-0.71l0.024-0.089l0.012-0.045l0.006-0.022c0.009-0.034-0.004,0.022-0.001,0.009      c0.015-0.058,0.029-0.114,0.043-0.171l0.01-0.043l0.014-0.05c0.008-0.033,0.017-0.065,0.026-0.099l0.026-0.1l0.006-0.025      l0.007-0.022l0.013-0.047c0.07-0.252,0.147-0.501,0.229-0.747c0.082-0.248,0.169-0.491,0.261-0.734      c0.092-0.242,0.188-0.481,0.289-0.72c0.8-1.902,1.821-3.659,2.639-5.453c0.409-0.896,0.765-1.803,1.013-2.727      c0.247-0.923,0.38-1.863,0.363-2.807c0-0.03,0-0.06-0.001-0.089L52.4,58.159l-0.002-0.044v-0.021c0-0.003-0.002-0.026,0-0.012      l-0.007-0.098l-0.005-0.098l-0.003-0.048l-0.004-0.045l-0.013-0.176c-0.021-0.244-0.047-0.488-0.078-0.733      c-0.063-0.489-0.149-0.979-0.25-1.469c-0.205-0.978-0.473-1.951-0.774-2.911s-0.636-1.908-0.982-2.844      c-0.346-0.936-0.705-1.857-1.058-2.769c-0.353-0.91-0.699-1.81-1.024-2.699c-0.162-0.445-0.318-0.888-0.464-1.329      c-0.037-0.11-0.073-0.22-0.108-0.33c-0.018-0.055-0.036-0.11-0.052-0.165l-0.014-0.041c-0.01-0.03-0.006-0.02-0.01-0.032      l-0.006-0.02c-0.007-0.027-0.015-0.055-0.023-0.082c-0.031-0.109-0.063-0.219-0.093-0.328c-0.032-0.11-0.062-0.219-0.092-0.327      c-0.24-0.87-0.454-1.722-0.629-2.556c-0.088-0.417-0.166-0.828-0.234-1.234c-0.068-0.405-0.127-0.805-0.173-1.198      c-0.046-0.393-0.083-0.779-0.107-1.157s-0.037-0.748-0.04-1.108c-0.005-0.721,0.033-1.405,0.104-2.042      c0.07-0.637,0.174-1.228,0.293-1.769c0.029-0.135,0.062-0.267,0.092-0.396c0.033-0.128,0.064-0.254,0.098-0.376      c0.032-0.122,0.067-0.241,0.1-0.356c0.036-0.115,0.068-0.229,0.103-0.337c0.276-0.873,0.553-1.536,0.749-1.983      c0.024-0.056,0.048-0.108,0.069-0.157c0.023-0.049,0.044-0.095,0.063-0.137c0.02-0.042,0.037-0.082,0.054-0.117      c0.016-0.036,0.031-0.068,0.044-0.097c0.054-0.114,0.082-0.172,0.082-0.172s-0.024,0.06-0.071,0.177      c-0.012,0.03-0.025,0.063-0.039,0.099c-0.014,0.037-0.03,0.076-0.047,0.12c-0.016,0.043-0.035,0.09-0.054,0.141      c-0.019,0.05-0.039,0.104-0.06,0.161c-0.169,0.457-0.407,1.132-0.629,2.012c-0.028,0.11-0.054,0.223-0.083,0.339      c-0.026,0.117-0.054,0.236-0.079,0.358c-0.026,0.122-0.049,0.248-0.075,0.376c-0.023,0.128-0.047,0.26-0.068,0.395      c-0.087,0.538-0.155,1.123-0.188,1.75c-0.033,0.627-0.031,1.295,0.015,1.996c0.022,0.351,0.057,0.709,0.101,1.075      c0.045,0.366,0.102,0.739,0.169,1.118c0.067,0.379,0.146,0.766,0.235,1.157c0.09,0.391,0.189,0.788,0.299,1.189      c0.218,0.804,0.476,1.626,0.761,2.467c0.036,0.105,0.073,0.21,0.108,0.315c0.037,0.106,0.074,0.212,0.111,0.319      c0.01,0.026,0.02,0.053,0.028,0.08l0.007,0.02c0.001,0.001,0.009,0.025,0.003,0.008l0.016,0.039      c0.02,0.052,0.04,0.105,0.06,0.158c0.042,0.104,0.082,0.209,0.125,0.315c0.168,0.421,0.346,0.846,0.53,1.274      c0.37,0.855,0.765,1.726,1.169,2.614c0.404,0.888,0.818,1.794,1.224,2.721s0.805,1.876,1.174,2.851      c0.369,0.977,0.711,1.98,0.99,3.018c0.141,0.52,0.265,1.047,0.366,1.584c0.051,0.27,0.096,0.541,0.135,0.813l0.027,0.212      l0.007,0.053l0.006,0.049l0.012,0.097l0.012,0.097l0.011,0.117l0.009,0.106c0.004,0.035,0.007,0.071,0.009,0.106l0.015,0.214      c0.004,0.07,0.007,0.142,0.01,0.213s0.004,0.143,0.006,0.214l0.001,0.106c0.001,0.035,0,0.071,0,0.106v0.106      c-0.001,0.036,0,0.071-0.001,0.107l-0.006,0.213c-0.007,0.143-0.014,0.284-0.024,0.426c-0.021,0.282-0.051,0.564-0.092,0.844      c-0.04,0.279-0.089,0.556-0.145,0.83s-0.12,0.545-0.19,0.813s-0.146,0.532-0.229,0.793s-0.168,0.519-0.257,0.773      c-0.091,0.254-0.185,0.505-0.28,0.754c-0.386,0.992-0.809,1.937-1.208,2.852s-0.777,1.802-1.084,2.67      c-0.077,0.217-0.15,0.433-0.217,0.647c-0.067,0.215-0.13,0.428-0.187,0.64s-0.109,0.422-0.154,0.631l-0.008,0.04l-0.005,0.02      l-0.004,0.018l-0.015,0.074l-0.015,0.073l-0.007,0.038l-0.008,0.043c-0.011,0.058-0.022,0.116-0.033,0.174      c0,0.001-0.016,0.072-0.011,0.052l-0.004,0.021l-0.009,0.041l-0.016,0.083c-0.045,0.219-0.087,0.438-0.127,0.657      c-0.038,0.218-0.076,0.436-0.11,0.652c-0.068,0.434-0.127,0.864-0.178,1.291c-0.101,0.853-0.169,1.688-0.214,2.502      c-0.045,0.813-0.067,1.603-0.077,2.364c-0.008,0.761-0.003,1.494,0.01,2.193c0.012,0.699,0.03,1.366,0.051,1.994      c0.042,1.255,0.089,2.359,0.125,3.272c0.036,0.914,0.06,1.637,0.074,2.131c0.014,0.493,0.021,0.757,0.021,0.757L45.873,90.672z"/></g></g></g><g><g><path d="M53.113,59.037c0.093-0.327,0.188-0.655,0.282-0.983c0.095-0.327,0.191-0.656,0.291-0.984s0.201-0.655,0.307-0.982     s0.216-0.653,0.33-0.979s0.233-0.648,0.358-0.972c0.126-0.322,0.257-0.643,0.396-0.96c0.034-0.08,0.07-0.158,0.104-0.238     l0.054-0.118l0.056-0.118c0.037-0.078,0.072-0.158,0.11-0.236l0.115-0.234c0.018-0.039,0.038-0.077,0.058-0.117l0.06-0.115     l0.061-0.116l0.062-0.116c0.041-0.076,0.081-0.153,0.124-0.229l0.128-0.229c0.021-0.039,0.044-0.076,0.066-0.113l0.066-0.113     l0.066-0.113l0.069-0.11l0.069-0.111c0.023-0.037,0.046-0.075,0.07-0.111l0.144-0.22c0.197-0.291,0.403-0.576,0.622-0.852     c0.112-0.137,0.222-0.274,0.339-0.406l0.087-0.099l0.012-0.013l0.005-0.006c0.005-0.005-0.012,0.014-0.002,0.003l0.02-0.024     l0.042-0.049l0.165-0.194c0.222-0.262,0.443-0.519,0.666-0.777c0.222-0.258,0.441-0.515,0.661-0.773     c0.219-0.258,0.436-0.519,0.648-0.779c0.426-0.522,0.841-1.053,1.229-1.599l0.073-0.102l0.071-0.104l0.143-0.207l0.139-0.209     c0.023-0.035,0.047-0.069,0.069-0.104l0.067-0.106l0.067-0.105c0.022-0.035,0.045-0.07,0.066-0.106l0.13-0.213l0.032-0.054     l0.031-0.054l0.063-0.108c0.041-0.072,0.084-0.144,0.124-0.217l0.119-0.219c0.038-0.073,0.076-0.147,0.114-0.221     c0.019-0.037,0.037-0.074,0.057-0.111l0.054-0.112l0.053-0.112c0.019-0.038,0.037-0.074,0.054-0.113l0.101-0.227l0.025-0.057     l0.022-0.057l0.047-0.115c0.065-0.153,0.119-0.309,0.177-0.463l0.077-0.235l0.019-0.059c0.007-0.02,0.014-0.039,0.019-0.059     l0.034-0.118l0.034-0.119l0.018-0.06l0.015-0.06l0.06-0.239l0.007-0.03l0.006-0.03l0.012-0.061l0.024-0.121L63.3,40.04     l0.02-0.121l0.02-0.122l0.01-0.061l0.003-0.015l0.001-0.008c0,0.005,0.003-0.021,0,0.009l0.002-0.031l0.01-0.127l0.002-0.032     l0.002-0.03l0.004-0.062c0.005-0.082,0.008-0.165,0.012-0.247c0.002-0.042,0.002-0.083,0.004-0.125     c0.001-0.042,0.003-0.083,0.003-0.125c0.002-0.166,0-0.332-0.004-0.499c-0.005-0.166-0.014-0.333-0.024-0.499     c-0.012-0.166-0.026-0.333-0.044-0.499c-0.035-0.333-0.08-0.666-0.131-1c-0.051-0.334-0.105-0.669-0.156-1.008     s-0.097-0.681-0.126-1.027c-0.015-0.173-0.025-0.347-0.03-0.521s-0.005-0.35,0.002-0.525c0.007-0.176,0.021-0.351,0.041-0.525     c0.021-0.174,0.049-0.348,0.084-0.52c0.009-0.043,0.017-0.086,0.027-0.129l0.029-0.128c0.022-0.085,0.044-0.17,0.069-0.254     c0.049-0.168,0.104-0.335,0.165-0.499l0.023-0.061l0.023-0.061c0.017-0.04,0.033-0.081,0.049-0.122     c0.035-0.08,0.068-0.161,0.105-0.239c0.071-0.159,0.149-0.314,0.231-0.468c0.164-0.306,0.343-0.602,0.535-0.889l0.004-0.007     l0.003-0.003l0.321-0.401l0.162-0.201c0.054-0.067,0.106-0.134,0.161-0.2l0.328-0.396c0.11-0.132,0.218-0.265,0.329-0.395     l0.332-0.392l0.166-0.196l0.167-0.195l0.667-0.779l0.334-0.39c0.111-0.13,0.221-0.26,0.332-0.391l0.331-0.391l0.326-0.394     l0.164-0.197l0.081-0.099c0.027-0.033,0.056-0.065,0.081-0.099l0.321-0.399l0.159-0.2l0.077-0.096l0.074-0.105     c0.049-0.07,0.099-0.14,0.144-0.21l0.07-0.106c0.023-0.035,0.047-0.07,0.069-0.106c0.183-0.286,0.351-0.582,0.505-0.884     c0.154-0.303,0.294-0.613,0.421-0.928c0.255-0.631,0.457-1.283,0.63-1.943c0.174-0.66,0.32-1.328,0.468-1.996     c0.148-0.668,0.299-1.335,0.472-1.997c-0.159,0.666-0.296,1.335-0.43,2.006s-0.266,1.342-0.426,2.008     c-0.16,0.666-0.349,1.327-0.594,1.969c-0.121,0.321-0.257,0.638-0.406,0.948s-0.314,0.613-0.493,0.907     c-0.021,0.037-0.046,0.074-0.068,0.11l-0.07,0.109c-0.045,0.074-0.094,0.144-0.141,0.215l-0.071,0.107l-0.082,0.106l-0.156,0.204     l-0.313,0.407c-0.025,0.034-0.052,0.067-0.078,0.101l-0.08,0.101l-0.16,0.201l-0.319,0.402l-0.324,0.399     c-0.107,0.132-0.215,0.266-0.323,0.397L67.1,26.471l-0.65,0.793l-0.163,0.198l-0.162,0.199l-0.322,0.398     c-0.108,0.132-0.214,0.266-0.319,0.399l-0.318,0.401c-0.054,0.066-0.105,0.135-0.157,0.202l-0.155,0.203l-0.312,0.405     l0.008-0.011c-0.18,0.283-0.348,0.572-0.499,0.869c-0.074,0.149-0.146,0.299-0.211,0.452c-0.034,0.076-0.064,0.153-0.096,0.23     c-0.015,0.038-0.028,0.078-0.043,0.116l-0.022,0.058l-0.021,0.059c-0.056,0.156-0.104,0.313-0.146,0.473     c-0.021,0.079-0.04,0.159-0.06,0.239l-0.024,0.121c-0.009,0.041-0.016,0.081-0.023,0.122c-0.029,0.162-0.053,0.324-0.068,0.488     c-0.016,0.164-0.025,0.328-0.028,0.493c-0.003,0.165,0,0.33,0.009,0.495c0.008,0.166,0.022,0.331,0.04,0.497     c0.034,0.331,0.086,0.663,0.143,0.995c0.058,0.333,0.119,0.667,0.178,1.004c0.058,0.337,0.111,0.677,0.154,1.021     c0.022,0.171,0.041,0.343,0.057,0.516s0.028,0.346,0.037,0.52c0.007,0.173,0.013,0.348,0.015,0.521c0,0.044,0,0.087,0,0.13     c-0.001,0.044,0,0.087-0.002,0.131c-0.001,0.087-0.003,0.174-0.007,0.263l-0.003,0.066l-0.001,0.033l-0.002,0.032l-0.007,0.127     l-0.002,0.032c-0.003,0.036-0.002,0.015-0.003,0.025v0.009l-0.003,0.016l-0.01,0.065l-0.018,0.131l-0.018,0.131l-0.023,0.13     l-0.023,0.13l-0.012,0.064l-0.006,0.032l-0.008,0.032l-0.058,0.258l-0.014,0.064l-0.018,0.063l-0.033,0.127l-0.034,0.127     c-0.006,0.021-0.012,0.042-0.019,0.063l-0.019,0.063l-0.077,0.251c-0.058,0.165-0.111,0.332-0.176,0.495l-0.048,0.122     l-0.022,0.062l-0.025,0.06l-0.102,0.242c-0.017,0.041-0.035,0.08-0.053,0.12l-0.054,0.119l-0.055,0.119     c-0.018,0.04-0.037,0.079-0.057,0.118c-0.038,0.078-0.075,0.156-0.115,0.234l-0.119,0.231c-0.04,0.078-0.083,0.153-0.124,0.229     l-0.063,0.114l-0.03,0.057l-0.033,0.057l-0.13,0.225c-0.021,0.038-0.045,0.075-0.067,0.112l-0.067,0.111l-0.068,0.111     c-0.021,0.037-0.046,0.073-0.068,0.11l-0.139,0.219l-0.143,0.216l-0.072,0.108l-0.072,0.106     c-0.389,0.571-0.801,1.122-1.223,1.663c-0.212,0.27-0.426,0.537-0.641,0.803c-0.216,0.266-0.433,0.529-0.648,0.792     c-0.217,0.263-0.433,0.524-0.646,0.785l-0.16,0.198l-0.04,0.05l-0.021,0.024l-0.028,0.033l-0.078,0.095     c-0.106,0.124-0.206,0.255-0.308,0.383c-0.198,0.262-0.386,0.532-0.564,0.81l-0.131,0.209c-0.022,0.034-0.043,0.07-0.064,0.106     l-0.063,0.105l-0.063,0.106l-0.062,0.108l-0.061,0.108c-0.02,0.035-0.04,0.072-0.06,0.108l-0.117,0.219     c-0.039,0.073-0.075,0.147-0.113,0.221l-0.057,0.111l-0.054,0.112l-0.055,0.111c-0.019,0.038-0.037,0.075-0.054,0.113     l-0.105,0.227c-0.034,0.074-0.066,0.151-0.101,0.228l-0.05,0.114l-0.05,0.114c-0.032,0.077-0.064,0.153-0.097,0.231     c-0.127,0.308-0.246,0.62-0.361,0.934c-0.115,0.314-0.224,0.631-0.329,0.949c-0.104,0.319-0.204,0.641-0.302,0.963     c-0.097,0.322-0.19,0.646-0.281,0.972c-0.091,0.325-0.18,0.65-0.268,0.978c-0.087,0.327-0.173,0.655-0.26,0.984L53.113,59.037z"/></g></g><g><g><path d="M63.422,40.003c0,0,0.021-0.017,0.061-0.047c0.021-0.016,0.045-0.035,0.074-0.058l0.006-0.004     c0.002-0.001,0.005-0.003,0.007-0.004c0.004-0.003,0.01-0.006,0.014-0.01c0.009-0.006,0.02-0.013,0.03-0.021     c0.02-0.014,0.041-0.028,0.064-0.044c0.046-0.033,0.097-0.062,0.153-0.096c0.014-0.008,0.028-0.017,0.043-0.026     s0.03-0.016,0.046-0.024c0.032-0.016,0.065-0.033,0.101-0.051c0.139-0.066,0.304-0.138,0.495-0.19     c0.19-0.054,0.406-0.096,0.641-0.116s0.486-0.021,0.752,0.001s0.544,0.065,0.83,0.125c0.288,0.061,0.583,0.141,0.888,0.233     c0.609,0.185,1.249,0.424,1.922,0.676c0.672,0.25,1.378,0.517,2.121,0.735c0.185,0.055,0.374,0.105,0.563,0.153     c0.19,0.046,0.383,0.087,0.578,0.124c0.194,0.034,0.391,0.064,0.589,0.084c0.197,0.02,0.397,0.032,0.598,0.033     c0.2,0,0.4-0.01,0.601-0.033c0.199-0.023,0.396-0.061,0.592-0.11c0.049-0.013,0.097-0.026,0.146-0.04     c0.048-0.015,0.096-0.031,0.144-0.046c0.049-0.015,0.096-0.034,0.142-0.052l0.071-0.027l0.018-0.006     c0.003-0.001,0.001,0,0.006-0.002l0.01-0.004l0.036-0.016l0.143-0.062l0.036-0.016c0.013-0.005,0.022-0.011,0.034-0.017     l0.068-0.033l0.068-0.033l0.034-0.017l0.017-0.008l0.018-0.009l0.135-0.073c0.022-0.012,0.045-0.023,0.067-0.036l0.065-0.039     l0.132-0.078l0.129-0.083l0.064-0.042l0.062-0.044l0.126-0.089l0.12-0.094c0.021-0.015,0.041-0.03,0.061-0.046l0.059-0.049     c0.04-0.033,0.079-0.065,0.116-0.099c0.076-0.068,0.153-0.135,0.225-0.208l0.055-0.053l0.027-0.027l0.025-0.027     c0.036-0.037,0.07-0.074,0.105-0.111c0.018-0.018,0.034-0.037,0.051-0.056l0.051-0.057l0.051-0.057     c0.017-0.019,0.032-0.039,0.049-0.058c0.031-0.04,0.064-0.079,0.096-0.118c0.031-0.04,0.062-0.08,0.093-0.12     c0.016-0.021,0.031-0.04,0.046-0.061l0.045-0.062c0.028-0.042,0.059-0.082,0.087-0.123c0.057-0.084,0.114-0.167,0.167-0.252     c0.056-0.084,0.105-0.171,0.157-0.257c0.025-0.043,0.05-0.087,0.074-0.13c0.024-0.043,0.049-0.087,0.073-0.131     c0.023-0.044,0.047-0.088,0.07-0.132c0.022-0.044,0.045-0.088,0.067-0.133l0.034-0.066l0.032-0.067     c0.021-0.044,0.043-0.089,0.064-0.133c0.021-0.045,0.042-0.089,0.063-0.134l0.03-0.067c0.011-0.022,0.021-0.045,0.03-0.067     c0.021-0.045,0.039-0.089,0.06-0.134c0.02-0.045,0.038-0.09,0.058-0.135c0.304-0.718,0.552-1.434,0.8-2.107     c0.248-0.674,0.497-1.31,0.778-1.873c0.14-0.281,0.287-0.545,0.44-0.787c0.154-0.242,0.316-0.462,0.48-0.658     c0.164-0.195,0.33-0.368,0.495-0.516c0.01-0.009,0.02-0.019,0.03-0.027c0.01-0.009,0.021-0.018,0.031-0.026     c0.021-0.018,0.04-0.036,0.062-0.052c0.02-0.017,0.039-0.035,0.059-0.051c0.021-0.016,0.041-0.032,0.062-0.048     c0.02-0.015,0.04-0.03,0.059-0.046c0.02-0.016,0.039-0.031,0.059-0.044c0.039-0.028,0.077-0.055,0.115-0.082     c0.036-0.027,0.074-0.05,0.111-0.075c0.036-0.023,0.07-0.046,0.104-0.068c0.071-0.041,0.137-0.081,0.199-0.115     c0.063-0.034,0.12-0.064,0.174-0.092c0.054-0.026,0.104-0.049,0.148-0.07c0.022-0.01,0.043-0.02,0.063-0.03     c0.021-0.008,0.039-0.016,0.056-0.023c0.035-0.014,0.063-0.026,0.088-0.036c0.046-0.02,0.07-0.029,0.07-0.029     s-0.024,0.01-0.07,0.03c-0.023,0.01-0.052,0.023-0.086,0.038c-0.018,0.007-0.036,0.016-0.056,0.024     c-0.02,0.009-0.04,0.02-0.062,0.031c-0.044,0.021-0.094,0.045-0.146,0.072c-0.053,0.029-0.111,0.061-0.173,0.095     c-0.061,0.036-0.125,0.077-0.195,0.119c-0.033,0.022-0.068,0.046-0.104,0.07c-0.035,0.024-0.072,0.047-0.108,0.076     c-0.036,0.027-0.074,0.055-0.113,0.084c-0.02,0.014-0.038,0.029-0.057,0.045c-0.02,0.016-0.038,0.031-0.058,0.047     c-0.021,0.016-0.04,0.032-0.06,0.048c-0.021,0.016-0.039,0.034-0.06,0.051c-0.019,0.018-0.039,0.035-0.059,0.053     c-0.011,0.009-0.021,0.018-0.03,0.027c-0.011,0.009-0.021,0.018-0.03,0.028c-0.16,0.15-0.322,0.325-0.481,0.521     c-0.159,0.197-0.314,0.419-0.462,0.661c-0.148,0.243-0.29,0.507-0.423,0.789c-0.268,0.564-0.503,1.2-0.737,1.878     c-0.236,0.677-0.47,1.399-0.763,2.129c-0.019,0.046-0.037,0.091-0.056,0.137c-0.02,0.046-0.038,0.091-0.058,0.137     c-0.01,0.023-0.02,0.046-0.029,0.069c-0.01,0.022-0.02,0.045-0.029,0.068c-0.021,0.046-0.041,0.092-0.061,0.137     c-0.021,0.046-0.042,0.091-0.063,0.137l-0.031,0.068l-0.033,0.068c-0.021,0.045-0.044,0.091-0.066,0.137     c-0.023,0.045-0.046,0.09-0.069,0.135c-0.022,0.046-0.046,0.09-0.071,0.135c-0.023,0.045-0.048,0.091-0.073,0.135     c-0.051,0.089-0.101,0.178-0.155,0.266c-0.053,0.089-0.11,0.175-0.166,0.262c-0.028,0.044-0.059,0.086-0.088,0.129l-0.045,0.064     c-0.016,0.021-0.03,0.042-0.046,0.063c-0.031,0.042-0.062,0.084-0.093,0.126c-0.033,0.042-0.065,0.083-0.098,0.124     c-0.017,0.021-0.032,0.042-0.049,0.062l-0.052,0.061l-0.051,0.06c-0.018,0.02-0.033,0.04-0.052,0.059     c-0.036,0.039-0.071,0.078-0.106,0.117l-0.027,0.029l-0.027,0.028l-0.057,0.056c-0.072,0.077-0.15,0.148-0.228,0.221     c-0.039,0.036-0.08,0.07-0.119,0.105l-0.061,0.052c-0.021,0.017-0.041,0.033-0.063,0.05l-0.124,0.1l-0.129,0.095l-0.063,0.047     l-0.067,0.045l-0.132,0.089l-0.136,0.084l-0.068,0.042c-0.022,0.014-0.047,0.027-0.069,0.04l-0.14,0.078l-0.018,0.01     l-0.018,0.009l-0.036,0.019l-0.072,0.037l-0.072,0.037c-0.013,0.006-0.024,0.012-0.036,0.018l-0.035,0.017l-0.143,0.065     L75.835,41.4l-0.009,0.004c-0.001,0-0.01,0.004-0.013,0.005l-0.019,0.008l-0.074,0.03c-0.05,0.02-0.1,0.042-0.15,0.059     c-0.052,0.017-0.102,0.036-0.152,0.052c-0.053,0.016-0.104,0.031-0.155,0.046c-0.207,0.057-0.417,0.101-0.628,0.13     c-0.212,0.028-0.424,0.042-0.636,0.046c-0.211,0.003-0.421-0.006-0.629-0.022c-0.207-0.018-0.413-0.044-0.616-0.076     c-0.201-0.034-0.402-0.072-0.599-0.117c-0.197-0.045-0.392-0.092-0.582-0.146c-0.765-0.209-1.482-0.464-2.161-0.703     c-0.676-0.239-1.313-0.463-1.908-0.63c-0.296-0.084-0.582-0.155-0.854-0.207c-0.273-0.052-0.532-0.087-0.774-0.103     c-0.242-0.015-0.469-0.01-0.672,0.012c-0.205,0.022-0.388,0.061-0.548,0.11c-0.161,0.047-0.296,0.11-0.411,0.167     c-0.028,0.016-0.056,0.03-0.082,0.044c-0.013,0.007-0.026,0.013-0.038,0.021c-0.012,0.007-0.023,0.015-0.035,0.022     c-0.046,0.029-0.091,0.054-0.123,0.08c-0.018,0.012-0.033,0.024-0.049,0.034c-0.008,0.006-0.016,0.011-0.022,0.016     c-0.003,0.003-0.007,0.005-0.011,0.007l-0.004,0.004l-0.006,0.004c-0.029,0.023-0.054,0.043-0.073,0.059     c-0.04,0.032-0.06,0.048-0.06,0.048L63.422,40.003z"/></g></g><g><g><path d="M63.398,38.072c0,0-0.015-0.016-0.043-0.045c-0.015-0.015-0.033-0.033-0.054-0.056c-0.011-0.011-0.022-0.023-0.034-0.035     c-0.012-0.011-0.024-0.023-0.038-0.035c-0.026-0.025-0.056-0.054-0.089-0.084c-0.034-0.03-0.073-0.063-0.114-0.1     c-0.042-0.034-0.088-0.07-0.138-0.109c-0.024-0.019-0.051-0.038-0.077-0.057c-0.014-0.01-0.027-0.02-0.041-0.03     s-0.029-0.019-0.044-0.029c-0.231-0.157-0.533-0.325-0.907-0.456c-0.188-0.066-0.393-0.125-0.612-0.173     c-0.22-0.049-0.456-0.087-0.705-0.117c-0.499-0.061-1.05-0.083-1.641-0.112c-0.295-0.015-0.6-0.033-0.912-0.063     c-0.156-0.015-0.314-0.035-0.474-0.058c-0.16-0.023-0.321-0.053-0.481-0.089c-0.041-0.01-0.082-0.019-0.122-0.028     c-0.04-0.011-0.081-0.021-0.121-0.032c-0.04-0.01-0.08-0.023-0.121-0.035c-0.04-0.012-0.081-0.024-0.121-0.038     c-0.16-0.052-0.319-0.115-0.476-0.187c-0.079-0.035-0.155-0.076-0.232-0.116c-0.037-0.021-0.075-0.043-0.112-0.064     c-0.01-0.006-0.02-0.011-0.028-0.017l-0.028-0.017l-0.055-0.035c-0.146-0.094-0.289-0.197-0.422-0.312     c-0.133-0.115-0.26-0.237-0.376-0.369l-0.045-0.049c-0.014-0.017-0.027-0.034-0.042-0.051c-0.028-0.034-0.056-0.067-0.084-0.102     l-0.079-0.105l-0.04-0.053l-0.037-0.054l-0.074-0.108l-0.07-0.111l-0.036-0.056c-0.011-0.019-0.021-0.038-0.032-0.057     l-0.066-0.114c-0.011-0.019-0.021-0.038-0.031-0.057l-0.03-0.058c-0.021-0.039-0.041-0.077-0.062-0.117l-0.057-0.115     l-0.029-0.057L53.95,33.88l-0.014-0.031l-0.055-0.12l-0.027-0.061l-0.024-0.061l-0.051-0.123     c-0.015-0.041-0.029-0.082-0.044-0.124c-0.031-0.082-0.055-0.167-0.081-0.251c-0.013-0.042-0.022-0.086-0.033-0.128l-0.017-0.064     l-0.013-0.065l-0.012-0.065c-0.005-0.021-0.01-0.043-0.013-0.065c-0.006-0.044-0.012-0.088-0.018-0.132     c-0.004-0.044-0.007-0.088-0.012-0.132l-0.002-0.033l-0.001-0.033l-0.001-0.066c-0.003-0.177,0.012-0.354,0.044-0.526     c0.032-0.172,0.08-0.339,0.138-0.5s0.122-0.316,0.189-0.468c0.066-0.152,0.135-0.302,0.201-0.45     c0.066-0.149,0.13-0.296,0.188-0.444c0.015-0.037,0.029-0.074,0.043-0.111l0.021-0.055l0.021-0.056     c0.013-0.037,0.025-0.074,0.039-0.111c0.012-0.038,0.023-0.075,0.036-0.112c0.006-0.019,0.012-0.037,0.018-0.055     s0.012-0.037,0.017-0.056c0.011-0.037,0.021-0.075,0.032-0.112c0.01-0.037,0.021-0.074,0.029-0.111     c0.005-0.019,0.011-0.037,0.015-0.056l0.004-0.014l0.004-0.016l0.009-0.028c0.01-0.037,0.021-0.074,0.031-0.111     c0.004-0.019,0.01-0.037,0.015-0.055c0.004-0.018,0.009-0.037,0.013-0.055c0.01-0.037,0.019-0.073,0.027-0.109l0.007-0.027     l0.006-0.027c0.003-0.018,0.007-0.037,0.011-0.055c0.008-0.037,0.015-0.073,0.022-0.109c0.007-0.037,0.013-0.073,0.019-0.11     c0.003-0.018,0.007-0.036,0.01-0.054l0.004-0.027l0.004-0.027c0.005-0.036,0.01-0.072,0.014-0.108     c0.003-0.018,0.005-0.036,0.007-0.054c0.003-0.018,0.004-0.036,0.006-0.054c0.003-0.035,0.006-0.071,0.01-0.107l0.002-0.026     l0.002-0.027c0.001-0.018,0.002-0.036,0.002-0.053c0.003-0.036,0.005-0.071,0.006-0.106s0.002-0.071,0.002-0.105     c0.001-0.035,0.002-0.07,0.001-0.105c-0.001-0.035-0.002-0.069-0.003-0.104c0-0.017,0-0.035-0.001-0.051     c-0.001-0.018-0.002-0.035-0.003-0.052c-0.015-0.273-0.054-0.536-0.109-0.785c-0.111-0.498-0.29-0.935-0.477-1.306     c-0.012-0.023-0.023-0.046-0.035-0.069c-0.012-0.022-0.023-0.045-0.035-0.067c-0.024-0.044-0.047-0.088-0.071-0.13     c-0.024-0.042-0.048-0.084-0.07-0.125c-0.024-0.04-0.048-0.08-0.07-0.118c-0.023-0.039-0.047-0.076-0.07-0.112     c-0.022-0.037-0.045-0.073-0.067-0.107c-0.022-0.035-0.045-0.068-0.066-0.102c-0.011-0.017-0.021-0.033-0.032-0.049     c-0.011-0.016-0.021-0.031-0.032-0.047c-0.169-0.247-0.311-0.435-0.408-0.563c-0.049-0.063-0.088-0.111-0.113-0.144     c-0.025-0.033-0.039-0.049-0.039-0.049s0.014,0.017,0.04,0.048c0.026,0.032,0.066,0.079,0.117,0.142     c0.101,0.125,0.246,0.31,0.421,0.553c0.012,0.016,0.022,0.031,0.034,0.046c0.011,0.016,0.021,0.032,0.032,0.048     c0.023,0.032,0.047,0.065,0.07,0.1c0.022,0.034,0.046,0.07,0.07,0.106c0.023,0.036,0.048,0.073,0.071,0.112     c0.024,0.038,0.05,0.077,0.074,0.117s0.049,0.081,0.074,0.124c0.025,0.042,0.049,0.085,0.074,0.129     c0.012,0.021,0.024,0.044,0.037,0.066c0.013,0.023,0.024,0.046,0.037,0.069c0.099,0.185,0.195,0.386,0.283,0.604     c0.089,0.218,0.167,0.453,0.23,0.705c0.062,0.251,0.107,0.519,0.129,0.797c0.002,0.018,0.003,0.035,0.004,0.053     c0.002,0.018,0.003,0.035,0.003,0.053c0.002,0.036,0.003,0.071,0.006,0.106c0.001,0.035,0.001,0.071,0.001,0.107     c0,0.036,0.001,0.072,0.001,0.108c-0.001,0.036-0.002,0.072-0.003,0.109c-0.001,0.018-0.001,0.037-0.002,0.055v0.027     l-0.003,0.027c-0.002,0.037-0.005,0.074-0.007,0.11c-0.002,0.019-0.003,0.037-0.004,0.055c-0.002,0.019-0.005,0.037-0.006,0.056     c-0.005,0.037-0.009,0.074-0.012,0.111l-0.003,0.028l-0.005,0.028c-0.003,0.019-0.005,0.038-0.008,0.056     c-0.006,0.037-0.012,0.075-0.017,0.112c-0.007,0.037-0.014,0.075-0.02,0.112c-0.004,0.019-0.008,0.038-0.011,0.056l-0.005,0.028     l-0.007,0.029c-0.008,0.037-0.017,0.076-0.024,0.113c-0.004,0.019-0.009,0.038-0.013,0.057c-0.005,0.019-0.009,0.037-0.015,0.056     c-0.009,0.037-0.018,0.075-0.028,0.112l-0.007,0.028l-0.003,0.012l-0.004,0.014c-0.004,0.019-0.009,0.038-0.013,0.058     c-0.01,0.038-0.019,0.076-0.027,0.115c-0.01,0.038-0.021,0.076-0.031,0.115c-0.005,0.02-0.01,0.039-0.016,0.058     c-0.005,0.019-0.011,0.038-0.017,0.057c-0.011,0.039-0.023,0.077-0.034,0.115c-0.013,0.038-0.025,0.076-0.038,0.114l-0.019,0.058     l-0.021,0.057c-0.013,0.038-0.026,0.077-0.04,0.114c-0.056,0.152-0.117,0.304-0.181,0.455c-0.063,0.151-0.127,0.301-0.189,0.453     c-0.063,0.152-0.123,0.305-0.174,0.459c-0.051,0.156-0.092,0.313-0.118,0.473c-0.026,0.16-0.036,0.322-0.029,0.484l0.003,0.061     l0.001,0.03l0.003,0.03c0.005,0.041,0.009,0.081,0.014,0.122c0.006,0.04,0.013,0.081,0.02,0.121     c0.003,0.02,0.007,0.04,0.012,0.06l0.013,0.06l0.014,0.06l0.017,0.06c0.012,0.04,0.021,0.08,0.034,0.119     c0.026,0.079,0.05,0.157,0.081,0.235c0.016,0.039,0.029,0.078,0.046,0.116l0.05,0.115l0.024,0.058l0.027,0.056l0.054,0.112     l0.014,0.028l0.015,0.028l0.03,0.057l0.06,0.114c0.02,0.036,0.041,0.073,0.061,0.109l0.03,0.055     c0.011,0.018,0.021,0.037,0.031,0.054l0.065,0.107c0.011,0.018,0.021,0.035,0.032,0.053l0.034,0.052l0.07,0.104l0.072,0.1     l0.036,0.05l0.039,0.049l0.076,0.097l0.08,0.093c0.014,0.016,0.027,0.031,0.041,0.047l0.042,0.044     c0.11,0.12,0.23,0.23,0.355,0.333c0.124,0.103,0.258,0.194,0.394,0.277l0.052,0.031l0.025,0.015     c0.009,0.005,0.018,0.009,0.026,0.014c0.035,0.019,0.069,0.038,0.104,0.057c0.071,0.035,0.143,0.071,0.216,0.102     c0.145,0.063,0.293,0.118,0.443,0.162c0.037,0.012,0.075,0.021,0.112,0.032c0.039,0.01,0.076,0.021,0.114,0.029     c0.038,0.009,0.076,0.019,0.114,0.028c0.038,0.007,0.075,0.015,0.114,0.023c0.152,0.03,0.305,0.055,0.459,0.074     c0.152,0.019,0.304,0.034,0.456,0.045c0.303,0.022,0.603,0.033,0.896,0.041c0.586,0.015,1.148,0.024,1.671,0.075     c0.262,0.025,0.513,0.06,0.751,0.106c0.238,0.047,0.463,0.105,0.671,0.174s0.399,0.146,0.571,0.23     c0.044,0.02,0.084,0.043,0.125,0.063c0.02,0.01,0.04,0.021,0.06,0.032c0.021,0.011,0.04,0.021,0.059,0.033     c0.037,0.022,0.075,0.043,0.111,0.064c0.035,0.022,0.069,0.044,0.104,0.065c0.017,0.011,0.033,0.021,0.049,0.032     s0.031,0.022,0.048,0.033c0.03,0.021,0.061,0.042,0.09,0.063c0.056,0.042,0.108,0.082,0.157,0.12     c0.048,0.04,0.092,0.076,0.132,0.109c0.04,0.035,0.077,0.069,0.108,0.098c0.017,0.015,0.032,0.029,0.046,0.042     c0.013,0.013,0.024,0.024,0.036,0.035c0.021,0.021,0.04,0.04,0.055,0.054c0.029,0.029,0.044,0.044,0.044,0.044L63.398,38.072z"/></g></g><g><g><g><path d="M48.318,44.423c0,0-0.021-0.033-0.061-0.095c-0.04-0.064-0.097-0.159-0.167-0.284c-0.07-0.125-0.152-0.279-0.242-0.46      c-0.09-0.181-0.188-0.39-0.293-0.623c-0.104-0.232-0.216-0.49-0.335-0.768c-0.12-0.278-0.248-0.577-0.388-0.893      c-0.139-0.315-0.291-0.646-0.462-0.985c-0.172-0.339-0.364-0.686-0.588-1.022c-0.113-0.167-0.234-0.333-0.366-0.49      c-0.132-0.156-0.274-0.306-0.43-0.44c-0.155-0.134-0.323-0.252-0.503-0.348c-0.023-0.012-0.045-0.023-0.068-0.034      c-0.012-0.005-0.023-0.011-0.035-0.017l-0.044-0.02c-0.027-0.013-0.054-0.025-0.082-0.039l-0.02-0.009l-0.019-0.008      l-0.036-0.016l-0.037-0.017l-0.04-0.017c-0.026-0.01-0.052-0.022-0.079-0.032c-0.026-0.011-0.052-0.021-0.079-0.031      c-0.027-0.01-0.054-0.02-0.081-0.03c-0.108-0.039-0.218-0.076-0.331-0.109c-0.113-0.034-0.228-0.064-0.344-0.093      c-0.233-0.056-0.474-0.103-0.722-0.141c-0.495-0.078-1.014-0.125-1.548-0.171c-0.535-0.047-1.088-0.096-1.648-0.182      c-0.281-0.043-0.563-0.096-0.845-0.163c-0.282-0.068-0.564-0.149-0.841-0.251c-0.139-0.051-0.276-0.105-0.412-0.166      l-0.102-0.046l-0.101-0.047c-0.033-0.016-0.067-0.033-0.1-0.05l-0.025-0.012l-0.012-0.007c-0.011-0.005,0.006,0.004-0.027-0.014      l-0.046-0.027l-0.092-0.055L36.646,36.2l-0.023-0.015l-0.047-0.028L36.482,36.1l-0.092-0.058      c-0.123-0.077-0.246-0.158-0.366-0.239c-0.483-0.329-0.948-0.696-1.368-1.113c-0.21-0.208-0.41-0.428-0.595-0.658      c-0.092-0.115-0.182-0.233-0.268-0.353c-0.085-0.121-0.167-0.243-0.246-0.367c-0.313-0.498-0.568-1.023-0.783-1.554      c-0.216-0.531-0.396-1.066-0.563-1.595c-0.168-0.529-0.323-1.054-0.479-1.568c-0.077-0.257-0.154-0.512-0.23-0.764      c-0.076-0.248-0.16-0.494-0.25-0.733c-0.179-0.479-0.382-0.938-0.604-1.372c-0.444-0.869-0.965-1.639-1.51-2.297      c-0.545-0.658-1.113-1.204-1.649-1.646c-0.268-0.221-0.528-0.418-0.775-0.591c-0.247-0.173-0.479-0.324-0.693-0.453      c-0.213-0.13-0.409-0.24-0.58-0.332c-0.172-0.092-0.319-0.167-0.44-0.226c-0.121-0.059-0.213-0.103-0.277-0.131      c-0.063-0.029-0.095-0.044-0.095-0.044s0.033,0.014,0.097,0.042c0.064,0.026,0.159,0.068,0.28,0.124      c0.123,0.056,0.272,0.127,0.447,0.214c0.174,0.088,0.373,0.192,0.59,0.316c0.219,0.124,0.457,0.269,0.709,0.436      c0.253,0.167,0.521,0.357,0.797,0.572c0.552,0.431,1.141,0.966,1.711,1.617c0.57,0.65,1.122,1.417,1.598,2.289      c0.238,0.436,0.459,0.898,0.656,1.382c0.098,0.242,0.19,0.489,0.276,0.743c0.084,0.25,0.167,0.504,0.253,0.759      c0.169,0.51,0.338,1.029,0.519,1.549c0.182,0.52,0.374,1.041,0.597,1.55c0.224,0.508,0.48,1.002,0.789,1.463      c0.307,0.46,0.669,0.884,1.074,1.262c0.404,0.379,0.853,0.714,1.321,1.014c0.118,0.074,0.236,0.148,0.356,0.219l0.09,0.053      l0.089,0.051l0.045,0.026l0.022,0.013l0.024,0.013l0.093,0.051l0.046,0.026c-0.026-0.014,0,0-0.003-0.002l0.011,0.006      l0.023,0.011c0.03,0.014,0.061,0.029,0.092,0.042l0.092,0.041l0.094,0.039c0.125,0.051,0.251,0.098,0.379,0.14      c0.255,0.085,0.516,0.153,0.779,0.209c0.264,0.055,0.53,0.097,0.796,0.13c0.535,0.067,1.073,0.099,1.609,0.131      c0.537,0.032,1.071,0.064,1.601,0.132c0.265,0.034,0.527,0.077,0.788,0.131c0.129,0.027,0.258,0.059,0.386,0.093      c0.127,0.034,0.253,0.072,0.379,0.113c0.031,0.011,0.062,0.021,0.092,0.032c0.031,0.011,0.062,0.022,0.093,0.034      c0.031,0.011,0.061,0.023,0.092,0.035l0.046,0.018l0.047,0.019l0.047,0.02l0.023,0.009l0.021,0.009      c0.028,0.012,0.055,0.024,0.083,0.037l0.038,0.016c0.017,0.007,0.033,0.014,0.048,0.021c0.031,0.014,0.063,0.029,0.093,0.044      c0.247,0.121,0.47,0.271,0.67,0.434c0.201,0.164,0.378,0.34,0.54,0.521c0.161,0.181,0.304,0.366,0.436,0.552      c0.264,0.371,0.482,0.741,0.674,1.096c0.192,0.355,0.359,0.695,0.512,1.014c0.152,0.319,0.29,0.617,0.416,0.892      c0.127,0.273,0.243,0.522,0.351,0.744c0.107,0.222,0.205,0.416,0.292,0.581c0.088,0.165,0.166,0.301,0.23,0.409      s0.116,0.188,0.15,0.24c0.037,0.054,0.055,0.082,0.055,0.082L48.318,44.423z"/></g></g></g><g><g><path d="M31.495,27.707c0,0,0.008-0.049,0.022-0.14c0.008-0.046,0.019-0.104,0.031-0.17c0.006-0.033,0.014-0.069,0.021-0.107     c0.008-0.038,0.018-0.079,0.026-0.122c0.009-0.042,0.021-0.087,0.033-0.134c0.012-0.047,0.025-0.096,0.04-0.147     c0.029-0.102,0.063-0.212,0.105-0.327c0.043-0.116,0.093-0.238,0.155-0.362c0.063-0.125,0.135-0.253,0.224-0.379     c0.022-0.031,0.045-0.063,0.07-0.093c0.024-0.031,0.05-0.062,0.076-0.092c0.053-0.06,0.108-0.12,0.168-0.177     s0.124-0.112,0.19-0.165c0.067-0.052,0.137-0.103,0.21-0.15c0.291-0.192,0.617-0.344,0.944-0.508     c0.165-0.082,0.329-0.167,0.492-0.261c0.162-0.093,0.322-0.194,0.478-0.305c0.156-0.11,0.306-0.23,0.451-0.359     c0.036-0.032,0.072-0.064,0.107-0.098c0.035-0.033,0.07-0.066,0.104-0.101l0.052-0.052l0.05-0.052l0.102-0.106     c0.034-0.035,0.07-0.071,0.1-0.107c0.031-0.036,0.063-0.072,0.093-0.109c0.029-0.039,0.059-0.076,0.088-0.115     c0.016-0.019,0.029-0.039,0.043-0.059l0.041-0.059l0.042-0.06l0.039-0.061l0.039-0.062c0.013-0.021,0.026-0.041,0.038-0.062     c0.024-0.042,0.047-0.083,0.072-0.125c0.012-0.021,0.022-0.042,0.033-0.063l0.034-0.063c0.01-0.021,0.021-0.043,0.032-0.064     c0.011-0.021,0.021-0.043,0.031-0.065c0.02-0.043,0.04-0.086,0.06-0.129c0.036-0.087,0.075-0.174,0.107-0.262     c0.069-0.175,0.125-0.353,0.176-0.528c0.024-0.088,0.049-0.176,0.069-0.264c0.011-0.043,0.021-0.087,0.031-0.131     c0.009-0.043,0.019-0.086,0.027-0.13c0.004-0.022,0.009-0.043,0.014-0.065c0.003-0.021,0.007-0.043,0.012-0.064     c0.007-0.043,0.016-0.085,0.023-0.128c0.006-0.042,0.013-0.085,0.02-0.127c0.003-0.021,0.006-0.042,0.009-0.063l0.005-0.032     l0.003-0.031c0.044-0.333,0.064-0.652,0.067-0.945c0.002-0.294-0.013-0.563-0.039-0.801s-0.062-0.443-0.098-0.611     c-0.01-0.042-0.02-0.081-0.028-0.119c-0.009-0.037-0.017-0.072-0.027-0.104c-0.009-0.032-0.018-0.062-0.025-0.089     c-0.004-0.014-0.007-0.026-0.011-0.039c-0.004-0.012-0.007-0.023-0.011-0.035c-0.028-0.087-0.043-0.134-0.043-0.134     s0.016,0.046,0.046,0.133c0.004,0.011,0.008,0.022,0.012,0.035c0.003,0.012,0.007,0.025,0.012,0.039     c0.008,0.027,0.017,0.057,0.026,0.089c0.011,0.032,0.02,0.066,0.029,0.104c0.009,0.037,0.021,0.076,0.03,0.118     c0.04,0.167,0.08,0.373,0.111,0.611c0.031,0.238,0.051,0.508,0.055,0.804c0.003,0.295-0.011,0.616-0.047,0.953l-0.004,0.031     l-0.004,0.032c-0.003,0.021-0.006,0.042-0.009,0.063c-0.005,0.043-0.01,0.085-0.016,0.129c-0.007,0.043-0.014,0.086-0.021,0.13     c-0.003,0.021-0.007,0.043-0.01,0.065c-0.004,0.022-0.009,0.044-0.013,0.065c-0.008,0.044-0.017,0.088-0.025,0.132     c-0.008,0.044-0.019,0.088-0.028,0.133c-0.019,0.089-0.042,0.178-0.064,0.268c-0.049,0.179-0.102,0.36-0.168,0.539     c-0.031,0.09-0.069,0.179-0.104,0.269c-0.02,0.044-0.039,0.089-0.059,0.133c-0.01,0.022-0.019,0.044-0.029,0.066     c-0.011,0.022-0.022,0.044-0.033,0.065l-0.033,0.066c-0.01,0.022-0.021,0.044-0.033,0.066c-0.023,0.043-0.047,0.086-0.07,0.13     c-0.011,0.021-0.024,0.042-0.037,0.063l-0.039,0.064l-0.039,0.063l-0.041,0.062l-0.042,0.063     c-0.014,0.021-0.028,0.042-0.042,0.061c-0.03,0.04-0.06,0.08-0.09,0.12c-0.03,0.04-0.063,0.078-0.095,0.117     c-0.032,0.04-0.065,0.075-0.1,0.111l-0.099,0.108l-0.051,0.054l-0.051,0.054c-0.035,0.036-0.07,0.071-0.105,0.105     c-0.036,0.035-0.072,0.069-0.108,0.103c-0.146,0.134-0.297,0.261-0.455,0.377c-0.158,0.118-0.32,0.224-0.484,0.324     c-0.165,0.099-0.331,0.189-0.494,0.275c-0.327,0.172-0.646,0.329-0.915,0.516c-0.067,0.046-0.132,0.095-0.193,0.145     s-0.119,0.103-0.173,0.156s-0.104,0.109-0.151,0.165c-0.022,0.029-0.046,0.057-0.067,0.085c-0.021,0.029-0.042,0.059-0.062,0.087     c-0.158,0.233-0.262,0.476-0.337,0.695c-0.038,0.11-0.067,0.215-0.093,0.313c-0.013,0.049-0.025,0.097-0.035,0.142     c-0.009,0.045-0.021,0.088-0.029,0.13c-0.007,0.042-0.016,0.08-0.023,0.117s-0.013,0.072-0.019,0.104     c-0.011,0.064-0.019,0.119-0.027,0.164c-0.012,0.091-0.019,0.14-0.019,0.14L31.495,27.707z"/></g></g><g><g><path d="M36.652,36.17c0,0-0.019-0.013-0.055-0.04c-0.019-0.013-0.042-0.029-0.068-0.049c-0.027-0.019-0.059-0.043-0.093-0.065     c-0.034-0.022-0.072-0.047-0.113-0.075c-0.021-0.014-0.044-0.027-0.067-0.042c-0.025-0.015-0.049-0.029-0.075-0.045     c-0.103-0.062-0.225-0.126-0.364-0.191c-0.018-0.009-0.036-0.016-0.053-0.023s-0.036-0.016-0.055-0.023     c-0.019-0.008-0.037-0.017-0.057-0.024c-0.019-0.008-0.039-0.014-0.058-0.021c-0.04-0.014-0.08-0.03-0.121-0.043     c-0.042-0.013-0.084-0.026-0.129-0.04c-0.175-0.048-0.368-0.083-0.576-0.093c-0.208-0.011-0.43,0.008-0.66,0.06     c-0.059,0.011-0.116,0.029-0.174,0.044c-0.015,0.003-0.03,0.008-0.044,0.013c-0.014,0.005-0.029,0.01-0.043,0.014     c-0.014,0.005-0.029,0.01-0.044,0.015l-0.022,0.007l-0.022,0.008c-0.03,0.011-0.059,0.022-0.089,0.033l-0.022,0.009l-0.022,0.009     c-0.015,0.006-0.03,0.013-0.044,0.019c-0.015,0.007-0.03,0.013-0.044,0.02l-0.022,0.009l-0.022,0.01     c-0.03,0.015-0.06,0.029-0.09,0.043c-0.119,0.06-0.239,0.125-0.358,0.199c-0.06,0.036-0.119,0.076-0.179,0.115     c-0.03,0.02-0.059,0.041-0.09,0.061c-0.015,0.01-0.029,0.021-0.044,0.031c-0.015,0.011-0.029,0.021-0.045,0.032     c-0.03,0.022-0.059,0.043-0.089,0.065c-0.03,0.023-0.06,0.045-0.09,0.068c-0.015,0.011-0.029,0.022-0.044,0.034     c-0.015,0.011-0.03,0.023-0.045,0.035c-0.03,0.024-0.06,0.047-0.089,0.071c-0.119,0.096-0.239,0.196-0.358,0.301     c-0.239,0.209-0.479,0.433-0.726,0.663s-0.496,0.469-0.759,0.706c-0.262,0.237-0.535,0.474-0.827,0.698     c-0.145,0.113-0.296,0.22-0.453,0.323c-0.156,0.103-0.318,0.2-0.487,0.287c-0.169,0.088-0.344,0.167-0.524,0.233     c-0.18,0.067-0.368,0.119-0.559,0.155L27.6,39.793l-0.019,0.004l-0.01,0.002l-0.009,0.001l-0.069,0.011l-0.138,0.022     c-0.048,0.005-0.097,0.01-0.146,0.016l-0.073,0.008c-0.012,0.001-0.024,0.002-0.036,0.003l-0.036,0.001l-0.145,0.008     c-0.024,0.002-0.048,0.001-0.073,0.001l-0.072,0.001c-0.097,0.002-0.193-0.005-0.29-0.009l-0.018-0.001l-0.018-0.001     l-0.036-0.003l-0.072-0.007l-0.072-0.007c-0.024-0.002-0.048-0.007-0.072-0.01l-0.143-0.021l-0.142-0.028     c-0.023-0.005-0.047-0.009-0.07-0.014l-0.07-0.018c-0.046-0.011-0.093-0.022-0.139-0.035c-0.092-0.027-0.185-0.052-0.274-0.084     l-0.068-0.023c-0.011-0.004-0.022-0.008-0.033-0.011l-0.034-0.014c-0.044-0.017-0.089-0.034-0.133-0.051     c-0.043-0.018-0.087-0.038-0.13-0.056l-0.065-0.028c-0.022-0.009-0.043-0.02-0.064-0.03c-0.043-0.021-0.085-0.041-0.128-0.061     c-0.042-0.021-0.083-0.043-0.125-0.065c-0.021-0.011-0.042-0.021-0.063-0.033l-0.061-0.034c-0.041-0.023-0.082-0.045-0.123-0.069     c-0.322-0.189-0.626-0.398-0.917-0.619c-0.145-0.109-0.286-0.223-0.425-0.335c-0.138-0.113-0.274-0.228-0.407-0.342     c-0.534-0.458-1.034-0.915-1.532-1.318c-0.249-0.202-0.496-0.392-0.744-0.562s-0.497-0.321-0.745-0.448     c-0.248-0.126-0.496-0.229-0.738-0.303c-0.243-0.075-0.48-0.122-0.705-0.145c-0.028-0.003-0.056-0.006-0.084-0.009     c-0.027-0.001-0.055-0.003-0.082-0.004c-0.028-0.001-0.055-0.003-0.082-0.004l-0.021-0.001h-0.02c-0.014,0-0.027,0-0.04,0     c-0.026,0-0.053,0-0.079,0c-0.026,0-0.052-0.001-0.077,0.001c-0.051,0.003-0.102,0.006-0.15,0.008     c-0.024,0.001-0.048,0.005-0.073,0.007c-0.023,0.002-0.047,0.005-0.07,0.008c-0.023,0.002-0.046,0.005-0.07,0.008     c-0.023,0.002-0.045,0.007-0.067,0.011c-0.044,0.007-0.088,0.015-0.13,0.021c-0.021,0.003-0.042,0.009-0.062,0.013     c-0.021,0.005-0.041,0.009-0.061,0.014c-0.019,0.004-0.039,0.009-0.058,0.013c-0.02,0.005-0.039,0.008-0.057,0.014     c-0.037,0.01-0.073,0.02-0.108,0.03c-0.036,0.01-0.069,0.019-0.102,0.029c-0.032,0.011-0.064,0.021-0.093,0.031     c-0.031,0.01-0.06,0.02-0.087,0.029c-0.007,0.002-0.014,0.005-0.02,0.007c-0.007,0.002-0.014,0.005-0.02,0.007     c-0.014,0.005-0.026,0.011-0.039,0.015c-0.05,0.02-0.096,0.038-0.136,0.053c-0.021,0.008-0.04,0.016-0.058,0.024     c-0.017,0.008-0.034,0.015-0.049,0.022c-0.031,0.014-0.056,0.025-0.077,0.034c-0.042,0.019-0.063,0.028-0.063,0.028     s0.021-0.01,0.063-0.029c0.021-0.01,0.046-0.022,0.076-0.036c0.015-0.007,0.031-0.015,0.049-0.023     c0.018-0.008,0.037-0.017,0.057-0.025c0.041-0.017,0.086-0.035,0.136-0.056c0.012-0.005,0.025-0.01,0.038-0.016     c0.007-0.003,0.013-0.005,0.02-0.008c0.007-0.002,0.013-0.005,0.021-0.007c0.027-0.01,0.056-0.02,0.086-0.031     c0.03-0.011,0.062-0.022,0.093-0.034c0.033-0.011,0.066-0.021,0.102-0.031c0.035-0.011,0.071-0.021,0.108-0.033     c0.019-0.006,0.038-0.01,0.057-0.015c0.019-0.004,0.039-0.01,0.059-0.014c0.02-0.005,0.04-0.01,0.06-0.015     c0.021-0.005,0.042-0.011,0.063-0.015c0.042-0.008,0.086-0.016,0.13-0.024c0.022-0.004,0.044-0.009,0.067-0.012     c0.023-0.003,0.047-0.006,0.071-0.009c0.023-0.003,0.047-0.006,0.071-0.009c0.024-0.003,0.048-0.008,0.073-0.009     c0.05-0.003,0.1-0.007,0.151-0.012c0.026-0.002,0.052-0.002,0.079-0.003c0.027,0,0.053-0.001,0.08-0.001     c0.014,0,0.027,0,0.041-0.001l0.02,0l0.021,0.001c0.027,0,0.054,0.001,0.082,0.002c0.028,0.001,0.056,0.002,0.083,0.003     c0.028,0.002,0.057,0.004,0.085,0.007c0.229,0.018,0.47,0.061,0.719,0.131c0.248,0.07,0.501,0.168,0.755,0.292     c0.255,0.123,0.511,0.27,0.765,0.437c0.255,0.167,0.508,0.353,0.763,0.551c0.51,0.396,1.021,0.843,1.562,1.287     c0.135,0.111,0.272,0.222,0.412,0.331c0.14,0.109,0.282,0.218,0.427,0.322c0.29,0.21,0.593,0.409,0.91,0.585     c0.039,0.022,0.08,0.043,0.12,0.064l0.06,0.032c0.02,0.01,0.041,0.02,0.061,0.03c0.041,0.02,0.082,0.04,0.122,0.06     c0.042,0.019,0.083,0.037,0.125,0.056c0.021,0.009,0.042,0.019,0.063,0.028l0.063,0.025c0.042,0.017,0.084,0.035,0.126,0.051     c0.043,0.016,0.086,0.031,0.128,0.046l0.032,0.011c0.011,0.004,0.022,0.007,0.033,0.011l0.065,0.021     c0.086,0.029,0.174,0.051,0.262,0.075c0.044,0.012,0.088,0.02,0.133,0.031l0.066,0.015c0.022,0.004,0.045,0.008,0.067,0.012     l0.134,0.023l0.135,0.017c0.023,0.003,0.045,0.006,0.068,0.008l0.067,0.005l0.068,0.005l0.034,0.003l0.017,0.001l0.017,0     c0.09,0.001,0.181,0.006,0.271,0.002l0.068-0.002c0.023-0.001,0.045,0,0.068-0.002l0.135-0.011l0.034-0.002     c0.012-0.001,0.022-0.001,0.033-0.003l0.066-0.008c0.044-0.006,0.088-0.011,0.133-0.017l0.138-0.025l0.069-0.012l0.008-0.001     c0,0,0.004-0.001,0.007-0.001l0.016-0.004l0.033-0.007c0.174-0.037,0.346-0.088,0.511-0.153c0.166-0.065,0.328-0.142,0.484-0.228     c0.156-0.085,0.307-0.181,0.453-0.282c0.147-0.101,0.29-0.207,0.428-0.318c0.276-0.222,0.538-0.458,0.791-0.697     c0.505-0.479,0.978-0.967,1.459-1.406c0.12-0.109,0.242-0.216,0.363-0.319c0.031-0.025,0.062-0.05,0.092-0.075     c0.016-0.013,0.03-0.025,0.046-0.038s0.031-0.025,0.046-0.037c0.031-0.024,0.062-0.049,0.092-0.073     c0.031-0.023,0.063-0.047,0.094-0.07c0.016-0.012,0.03-0.024,0.046-0.036c0.016-0.011,0.031-0.022,0.047-0.034     c0.032-0.022,0.063-0.045,0.094-0.067c0.063-0.043,0.125-0.087,0.19-0.127c0.126-0.083,0.258-0.157,0.388-0.226     c0.032-0.017,0.066-0.033,0.098-0.049l0.024-0.013l0.025-0.011c0.017-0.007,0.033-0.015,0.05-0.022     c0.016-0.008,0.032-0.015,0.049-0.022l0.025-0.011l0.025-0.01c0.033-0.014,0.067-0.027,0.1-0.04l0.024-0.01l0.025-0.009     c0.017-0.005,0.034-0.011,0.05-0.017c0.017-0.006,0.034-0.012,0.05-0.018s0.033-0.012,0.05-0.016     c0.067-0.02,0.133-0.042,0.201-0.057c0.268-0.066,0.533-0.094,0.78-0.086c0.248,0.006,0.478,0.043,0.684,0.095     c0.051,0.014,0.101,0.028,0.15,0.042c0.048,0.015,0.095,0.032,0.141,0.047c0.023,0.008,0.046,0.015,0.068,0.023     c0.021,0.009,0.043,0.017,0.064,0.026c0.021,0.008,0.042,0.017,0.063,0.025c0.021,0.008,0.042,0.016,0.062,0.025     c0.04,0.018,0.078,0.036,0.116,0.053c0.019,0.009,0.037,0.017,0.056,0.025c0.017,0.009,0.035,0.018,0.052,0.026     c0.068,0.036,0.133,0.067,0.191,0.102c0.029,0.017,0.056,0.033,0.083,0.048c0.027,0.016,0.053,0.03,0.076,0.045     c0.049,0.031,0.094,0.059,0.133,0.084c0.041,0.025,0.071,0.047,0.099,0.066c0.027,0.019,0.051,0.035,0.07,0.048     c0.038,0.025,0.057,0.039,0.057,0.039L36.652,36.17z"/></g></g><g><g><path d="M29.825,38.64c0,0-0.007,0.012-0.021,0.036c-0.006,0.012-0.015,0.027-0.024,0.044c-0.005,0.009-0.01,0.018-0.016,0.029     c-0.005,0.01-0.011,0.021-0.017,0.032c-0.012,0.023-0.024,0.048-0.039,0.076c-0.014,0.028-0.029,0.059-0.046,0.093     c-0.017,0.033-0.032,0.07-0.051,0.109c-0.018,0.039-0.035,0.081-0.053,0.125c-0.035,0.089-0.072,0.188-0.106,0.299     c-0.033,0.11-0.064,0.231-0.088,0.361c-0.024,0.131-0.041,0.271-0.047,0.42s-0.001,0.307,0.015,0.47     c0.034,0.328,0.123,0.679,0.247,1.042c0.124,0.364,0.281,0.742,0.435,1.139c0.153,0.397,0.302,0.814,0.408,1.253     c0.026,0.109,0.051,0.22,0.071,0.331c0.011,0.056,0.02,0.112,0.029,0.168c0.008,0.056,0.017,0.112,0.024,0.169l0.005,0.043     l0.001,0.01l0.001,0.011l0.003,0.021l0.009,0.083c0.006,0.056,0.011,0.113,0.015,0.17c0.006,0.057,0.008,0.114,0.012,0.17     c0.004,0.058,0.005,0.114,0.007,0.172c0.001,0.028,0.002,0.057,0.002,0.085l0,0.086c0.001,0.058,0,0.114-0.001,0.172     c-0.003,0.113-0.009,0.228-0.02,0.341l-0.008,0.086l-0.01,0.084l-0.006,0.043l-0.006,0.042l-0.013,0.084     c-0.02,0.112-0.041,0.224-0.07,0.333l-0.01,0.04l-0.011,0.041c-0.008,0.027-0.016,0.055-0.024,0.082     c-0.017,0.053-0.033,0.106-0.052,0.159c-0.018,0.053-0.039,0.104-0.058,0.157c-0.01,0.025-0.021,0.051-0.032,0.076l-0.016,0.039     l-0.017,0.037c-0.045,0.102-0.096,0.199-0.149,0.294c-0.053,0.096-0.11,0.187-0.169,0.276c-0.239,0.355-0.517,0.662-0.791,0.939     s-0.541,0.529-0.781,0.77c-0.241,0.238-0.455,0.463-0.635,0.672c-0.089,0.104-0.172,0.203-0.247,0.296     c-0.073,0.094-0.139,0.181-0.197,0.262c-0.116,0.16-0.201,0.29-0.258,0.38c-0.028,0.045-0.049,0.079-0.063,0.104     c-0.014,0.022-0.021,0.035-0.021,0.035s0.006-0.013,0.021-0.036s0.034-0.059,0.063-0.104c0.055-0.092,0.138-0.224,0.251-0.386     c0.056-0.081,0.122-0.17,0.193-0.265c0.073-0.095,0.153-0.196,0.242-0.302c0.177-0.212,0.387-0.441,0.625-0.685     c0.235-0.245,0.5-0.501,0.767-0.782s0.537-0.59,0.765-0.943c0.057-0.089,0.111-0.179,0.161-0.273     c0.05-0.094,0.098-0.189,0.14-0.289l0.017-0.037l0.015-0.038c0.01-0.025,0.02-0.05,0.03-0.075     c0.019-0.051,0.038-0.102,0.054-0.153c0.018-0.052,0.032-0.104,0.048-0.157c0.007-0.026,0.014-0.053,0.021-0.079l0.01-0.039     l0.01-0.041c0.025-0.106,0.044-0.216,0.062-0.324l0.011-0.083l0.006-0.041l0.005-0.041l0.009-0.083l0.006-0.084     c0.009-0.11,0.012-0.222,0.014-0.334c-0.001-0.056,0-0.111-0.001-0.167l-0.002-0.084c0-0.028-0.001-0.057-0.003-0.084     c-0.011-0.224-0.034-0.446-0.064-0.668c-0.008-0.055-0.017-0.11-0.026-0.165c-0.01-0.054-0.02-0.109-0.032-0.163     c-0.021-0.108-0.046-0.216-0.075-0.322c-0.11-0.427-0.264-0.834-0.424-1.225c-0.159-0.391-0.325-0.768-0.457-1.138     c-0.067-0.185-0.126-0.369-0.173-0.549c-0.023-0.09-0.043-0.18-0.062-0.269c-0.016-0.089-0.031-0.177-0.042-0.264     c-0.021-0.173-0.029-0.342-0.026-0.502c0.004-0.16,0.02-0.312,0.043-0.453c0.023-0.141,0.054-0.271,0.087-0.39     c0.034-0.119,0.072-0.225,0.107-0.321c0.02-0.047,0.037-0.092,0.055-0.134c0.018-0.042,0.034-0.081,0.051-0.117     c0.017-0.035,0.033-0.069,0.047-0.099c0.015-0.03,0.029-0.058,0.042-0.082c0.006-0.012,0.012-0.024,0.018-0.035     c0.005-0.01,0.011-0.02,0.015-0.028c0.009-0.018,0.018-0.033,0.024-0.045c0.013-0.024,0.019-0.037,0.019-0.037L29.825,38.64z"/></g></g><g><path d="M24.752,55.794l-0.14-0.461c-0.625-2.059-0.64-3.446-0.047-4.247c0.334-0.45,0.85-0.688,1.491-0.688    c0.624,0,1.173,0.229,1.196,0.238l0.023,0.011l0.022,0.012c0.036,0.021,0.361,0.207,0.685,0.531    c0.473,0.475,0.702,1.008,0.663,1.542c-0.039,0.522-0.328,1.022-0.86,1.486c-0.567,0.494-1.435,0.966-2.582,1.404L24.752,55.794z     M26.056,51.297c-0.355,0-0.606,0.106-0.769,0.325c-0.168,0.228-0.254,0.581-0.255,1.054c-0.001,0.519,0.102,1.163,0.306,1.925    c2.021-0.848,2.382-1.566,2.41-1.934c0.047-0.61-0.729-1.124-0.871-1.212C26.781,51.418,26.429,51.297,26.056,51.297z"/></g><g><path d="M31.235,52.836L31.235,52.836c-0.936,0-1.597-0.28-1.967-0.834c-0.264-0.395-0.357-0.919-0.271-1.516    c0.06-0.414,0.185-0.722,0.199-0.756l0.009-0.023l0.013-0.022c0.019-0.034,0.194-0.344,0.501-0.661    c0.444-0.46,0.948-0.704,1.456-0.704c0.541,0,1.062,0.269,1.547,0.797c0.517,0.563,1.013,1.447,1.473,2.631l0.176,0.45    L33.91,52.34C32.85,52.669,31.949,52.836,31.235,52.836z M30.017,50.1c-0.104,0.272-0.283,0.984,0,1.405    c0.192,0.287,0.603,0.432,1.218,0.432l0,0c0.521,0,1.171-0.106,1.938-0.317c-0.363-0.849-0.735-1.484-1.112-1.895    c-0.308-0.335-0.607-0.506-0.885-0.506c-0.326,0-0.62,0.233-0.81,0.43C30.179,49.842,30.055,50.036,30.017,50.1z"/></g><g><path d="M32.721,47.324L32.721,47.324c-0.723,0-1.309-0.409-1.648-1.153c-0.233-0.511-0.278-1.018-0.279-1.04l-0.002-0.025    l0.001-0.025c0-0.022,0.019-0.552,0.237-1.086c0.319-0.779,0.915-1.209,1.677-1.209c0.917,0,2.046,0.605,3.454,1.849l0.362,0.319    l-0.344,0.338C34.786,46.659,33.656,47.324,32.721,47.324z M31.691,45.082c0.011,0.094,0.06,0.42,0.207,0.733    c0.256,0.547,0.592,0.609,0.822,0.609c0.428,0,1.195-0.259,2.472-1.436c-1.291-1.069-2.06-1.305-2.487-1.305    c-0.245,0-0.599,0.065-0.838,0.632C31.73,44.644,31.698,44.986,31.691,45.082z"/></g><g><path d="M31.453,42.667L31.453,42.667c-0.723,0-1.309-0.41-1.649-1.153c-0.233-0.511-0.278-1.019-0.28-1.04l-0.001-0.025l0-0.025    c0.001-0.022,0.019-0.553,0.237-1.087c0.319-0.779,0.915-1.208,1.678-1.208c0.916,0,2.046,0.605,3.454,1.849l0.361,0.319    l-0.344,0.338C33.519,42.002,32.388,42.667,31.453,42.667z M30.424,40.425c0.012,0.094,0.06,0.42,0.207,0.733    c0.257,0.547,0.592,0.61,0.823,0.61c0.427,0,1.195-0.259,2.471-1.436c-1.291-1.068-2.06-1.305-2.485-1.305    c-0.246,0-0.6,0.066-0.839,0.632C30.462,39.987,30.431,40.329,30.424,40.425z"/></g><g><path d="M26.355,49.957L26.355,49.957c-0.566-0.001-1.088-0.287-1.549-0.854c-0.493-0.604-0.931-1.555-1.305-2.826l-0.136-0.463    l0.471-0.104c0.862-0.188,1.618-0.283,2.243-0.283c1.151,0,1.932,0.322,2.318,0.957c0.255,0.421,0.317,0.963,0.18,1.569    c-0.095,0.42-0.251,0.728-0.269,0.762l-0.011,0.021l-0.015,0.021c-0.02,0.03-0.208,0.304-0.519,0.583    C27.316,49.744,26.829,49.957,26.355,49.957z M24.509,46.492c0.302,0.918,0.635,1.604,0.993,2.042    c0.283,0.347,0.57,0.523,0.853,0.523c0.509,0,1.008-0.554,1.167-0.778c0.131-0.271,0.377-0.986,0.106-1.429    c-0.266-0.434-0.989-0.524-1.549-0.524C25.634,46.326,25.107,46.382,24.509,46.492z"/></g><g><path d="M27.242,44.869L27.242,44.869c-0.904,0-2.029-0.562-3.442-1.716l-0.373-0.305l0.33-0.351    c1.372-1.458,2.5-2.166,3.451-2.166c0.397,0,0.752,0.124,1.056,0.369c0.228,0.185,0.42,0.435,0.573,0.743    c0.245,0.494,0.307,0.985,0.309,1.006l0.003,0.025V42.5c0,0.031,0,0.309-0.074,0.665c-0.106,0.509-0.308,0.917-0.598,1.209    C28.155,44.698,27.729,44.869,27.242,44.869z M24.753,42.762c1.295,0.99,2.063,1.208,2.488,1.208h0.001    c0.248,0,0.441-0.074,0.593-0.226c0.328-0.329,0.408-0.958,0.413-1.208c-0.029-0.183-0.243-1.305-1.041-1.305    c-0.289,0-0.641,0.125-1.045,0.373C25.739,41.862,25.267,42.25,24.753,42.762z"/></g><g><path d="M15.033,37.844L15.033,37.844c-0.904,0-2.029-0.561-3.442-1.716l-0.374-0.305l0.331-0.352    c1.373-1.457,2.501-2.166,3.45-2.166c0.398,0,0.753,0.125,1.056,0.37c0.229,0.184,0.421,0.434,0.574,0.743    c0.244,0.494,0.306,0.985,0.308,1.006l0.003,0.025l0.001,0.025c0,0.03,0,0.308-0.074,0.665c-0.106,0.51-0.308,0.917-0.598,1.21    C15.947,37.673,15.52,37.844,15.033,37.844z M12.544,35.737c1.294,0.989,2.063,1.208,2.488,1.208l0,0    c0.247,0,0.442-0.074,0.594-0.227c0.327-0.328,0.407-0.957,0.413-1.208c-0.03-0.182-0.244-1.305-1.042-1.305    c-0.289,0-0.641,0.125-1.045,0.373C13.53,34.837,13.058,35.226,12.544,35.737z"/></g><g><path d="M20.435,35.154L20.435,35.154c-0.607,0-1.139-0.211-1.161-0.221l-0.023-0.009l-0.023-0.012    c-0.036-0.02-0.364-0.202-0.692-0.522c-0.479-0.467-0.717-0.997-0.685-1.532c0.03-0.523,0.313-1.027,0.838-1.499    c0.559-0.502,1.42-0.987,2.561-1.441l0.448-0.179l0.147,0.459c0.657,2.057,0.69,3.449,0.101,4.256    C21.612,34.912,21.089,35.154,20.435,35.154z M19.635,34.108c0.094,0.034,0.435,0.147,0.8,0.147l0,0    c0.366,0,0.623-0.108,0.785-0.332c0.167-0.228,0.249-0.583,0.244-1.055c-0.005-0.519-0.118-1.166-0.334-1.927    c-2.011,0.878-2.36,1.603-2.382,1.97c-0.016,0.27,0.124,0.551,0.415,0.834C19.363,33.94,19.568,34.069,19.635,34.108z"/></g><g><path d="M17.466,42.05l-0.086-0.475c-0.369-2.044-0.245-3.4,0.378-4.146c0.331-0.396,0.797-0.604,1.35-0.604    c0.738,0,1.411,0.376,1.439,0.393l0.021,0.013l0.021,0.015c0.033,0.025,0.335,0.248,0.619,0.608    c0.415,0.526,0.58,1.082,0.479,1.608c-0.098,0.514-0.444,0.977-1.027,1.376c-0.62,0.424-1.538,0.793-2.727,1.094L17.466,42.05z     M19.108,37.724c-0.286,0-0.502,0.092-0.66,0.282c-0.183,0.219-0.301,0.569-0.349,1.041c-0.053,0.504-0.023,1.137,0.086,1.885    c2.106-0.606,2.548-1.279,2.619-1.639c0.118-0.601-0.593-1.201-0.724-1.306C19.974,37.933,19.542,37.724,19.108,37.724z"/></g><g><path d="M24.982,38.542L24.982,38.542c-0.739,0-1.412-0.378-1.441-0.394l-0.021-0.012l-0.021-0.015    c-0.033-0.024-0.335-0.248-0.618-0.608c-0.414-0.526-0.58-1.083-0.478-1.608c0.1-0.515,0.446-0.978,1.03-1.375    c0.62-0.424,1.538-0.791,2.728-1.092l0.468-0.118l0.085,0.475c0.366,2.044,0.241,3.4-0.382,4.146    C26,38.333,25.534,38.542,24.982,38.542z M24.008,37.377c0.104,0.054,0.539,0.265,0.974,0.265c0.285,0,0.501-0.092,0.659-0.281    c0.183-0.219,0.301-0.569,0.351-1.041c0.053-0.504,0.024-1.137-0.084-1.885c-2.109,0.605-2.552,1.277-2.621,1.638    c-0.051,0.266,0.05,0.563,0.301,0.882C23.76,37.175,23.947,37.329,24.008,37.377z"/></g><g><path d="M29.659,36.705L29.659,36.705c-0.683,0-1.222-0.251-1.557-0.727c-0.581-0.821-0.51-2.218,0.217-4.272l0.161-0.454    l0.442,0.192c1.125,0.489,1.972,1,2.516,1.52c0.511,0.487,0.778,1,0.792,1.524c0.015,0.535-0.238,1.057-0.732,1.51    c-0.338,0.31-0.671,0.481-0.708,0.5l-0.023,0.012l-0.024,0.009C30.722,36.525,30.231,36.705,29.659,36.705z M29.01,32.471    c-0.612,1.929-0.38,2.697-0.174,2.988c0.06,0.085,0.245,0.346,0.823,0.346c0.343,0,0.656-0.093,0.747-0.123    c0.146-0.082,0.944-0.56,0.924-1.172C31.319,34.143,30.991,33.409,29.01,32.471z"/></g><g><path d="M28.837,29.237L28.837,29.237c-0.806,0-1.819-0.285-3.096-0.87l-0.438-0.201l0.231-0.423    c0.57-1.043,1.137-1.824,1.684-2.321c0.516-0.467,1.035-0.704,1.544-0.704c0.563,0,1.087,0.291,1.517,0.84    c0.296,0.38,0.45,0.762,0.456,0.778l0.009,0.024l0.007,0.024c0.009,0.033,0.088,0.338,0.099,0.738    c0.016,0.573-0.121,1.066-0.395,1.425c-0.169,0.22-0.388,0.39-0.651,0.507C29.53,29.175,29.204,29.237,28.837,29.237z     M26.565,27.747c0.933,0.393,1.696,0.591,2.271,0.591l0,0c0.434,0,0.729-0.11,0.904-0.338c0.299-0.392,0.211-1.099,0.149-1.354    c-0.033-0.073-0.146-0.315-0.332-0.55c-0.252-0.318-0.52-0.479-0.795-0.479C28.399,25.617,27.648,25.906,26.565,27.747z"/></g><g><path d="M22.996,26.163l-0.062-0.479c-0.264-2.029-0.083-3.367,0.552-4.09c0.33-0.375,0.779-0.572,1.302-0.572    c0.768,0,1.449,0.417,1.524,0.465l0.021,0.014l0.02,0.016c0.032,0.026,0.323,0.264,0.588,0.637c0.388,0.546,0.527,1.109,0.4,1.63    c-0.125,0.509-0.493,0.955-1.094,1.324c-0.64,0.394-1.575,0.716-2.778,0.959L22.996,26.163z M24.787,21.921    c-0.267,0-0.466,0.085-0.626,0.267c-0.189,0.215-0.32,0.563-0.389,1.032c-0.073,0.497-0.074,1.121-0.002,1.861    c2.135-0.503,2.609-1.153,2.696-1.511c0.064-0.263-0.022-0.563-0.258-0.895c-0.162-0.228-0.341-0.391-0.399-0.441    C25.702,22.172,25.242,21.921,24.787,21.921z"/></g><g><path d="M22.536,20.986C22.536,20.986,22.536,20.986,22.536,20.986c-0.431,0-1.052-0.166-1.559-0.956    c-0.445-0.69-0.737-1.736-0.896-3.196l-0.052-0.479l0.482-0.018c0.205-0.008,0.405-0.011,0.596-0.011    c1.047,0,1.892,0.119,2.509,0.354c0.587,0.225,0.993,0.559,1.208,0.995c0.233,0.473,0.225,1.047-0.023,1.661    c-0.17,0.42-0.393,0.715-0.417,0.748l-0.016,0.02l-0.018,0.018c-0.021,0.022-0.218,0.223-0.525,0.426    C23.387,20.838,22.953,20.986,22.536,20.986z M21.037,17.225c0.147,1.05,0.382,1.83,0.696,2.319    c0.235,0.365,0.498,0.542,0.803,0.542l0,0c0.465,0,0.966-0.394,1.148-0.571c0.093-0.132,0.603-0.902,0.332-1.446    c-0.27-0.545-1.303-0.845-2.909-0.845C21.084,17.224,21.061,17.224,21.037,17.225z"/></g><g><path d="M28.509,21.547L28.509,21.547c-0.657,0-1.243-0.265-1.267-0.277l-0.023-0.011l-0.022-0.013    c-0.035-0.021-0.354-0.218-0.667-0.553c-0.458-0.489-0.67-1.029-0.615-1.562c0.054-0.521,0.359-1.012,0.906-1.459    c0.582-0.476,1.464-0.921,2.624-1.323l0.456-0.158l0.126,0.465c0.556,2.058,0.533,3.44-0.067,4.225    C29.625,21.317,29.124,21.547,28.509,21.547z M27.64,20.462c0.098,0.041,0.475,0.185,0.868,0.185c0.001,0,0.001,0,0.001,0    c0.334,0,0.574-0.103,0.735-0.312c0.172-0.225,0.267-0.579,0.281-1.052c0.015-0.515-0.068-1.158-0.247-1.917    c-2.049,0.785-2.431,1.493-2.47,1.859c-0.028,0.269,0.099,0.556,0.376,0.853C27.376,20.282,27.575,20.42,27.64,20.462z"/></g><g><path d="M32.384,24.973L32.384,24.973c-0.384,0-0.792-0.119-1.211-0.354c-0.295-0.165-0.49-0.329-0.51-0.347l-0.02-0.017    l-0.018-0.019c-0.028-0.03-0.281-0.308-0.49-0.715c-0.306-0.596-0.362-1.174-0.161-1.67c0.196-0.486,0.624-0.874,1.273-1.153    c0.69-0.297,1.661-0.482,2.887-0.549l0.481-0.027l-0.007,0.482c-0.024,1.54-0.237,2.642-0.653,3.37    C33.485,24.799,32.841,24.973,32.384,24.973z M31.269,23.606c0.179,0.145,0.671,0.467,1.116,0.467l0,0    c0.206,0,0.512-0.056,0.791-0.544c0.292-0.512,0.467-1.334,0.52-2.448c-2.186,0.19-2.748,0.766-2.886,1.107    c-0.101,0.251-0.058,0.562,0.127,0.923C31.064,23.36,31.218,23.549,31.269,23.606z"/></g><g><path d="M36.933,18.124L36.933,18.124c-0.064,0-0.104-0.002-0.112-0.002l-0.025-0.001l-0.025-0.004    c-0.041-0.007-0.41-0.073-0.824-0.271c-0.605-0.288-1-0.713-1.143-1.229c-0.139-0.505-0.035-1.074,0.311-1.689    c0.368-0.656,1.027-1.392,1.96-2.19l0.366-0.313l0.288,0.388c0.719,0.972,1.194,1.827,1.41,2.541    c0.203,0.671,0.188,1.246-0.044,1.708c-0.217,0.432-0.624,0.75-1.176,0.921C37.515,18.105,37.128,18.124,36.933,18.124z     M36.898,17.225c0.009,0,0.021,0,0.035,0l0,0c0.179,0,1.085-0.028,1.358-0.57c0.165-0.326,0.234-1.127-1-2.91    c-1.621,1.479-1.718,2.278-1.621,2.632c0.072,0.261,0.295,0.481,0.662,0.656C36.586,17.153,36.821,17.209,36.898,17.225z"/></g><g><path d="M40.163,23.373L40.163,23.373c-1.341,0-2.224-0.355-2.624-1.056c-0.249-0.436-0.29-0.989-0.119-1.601    c0.117-0.421,0.293-0.726,0.313-0.759l0.012-0.022l0.016-0.021c0.021-0.027,0.214-0.278,0.525-0.534    c0.447-0.365,0.922-0.559,1.376-0.559c0.28,0,0.552,0.072,0.808,0.213c0.267,0.148,0.517,0.375,0.743,0.673    c0.477,0.629,0.875,1.62,1.187,2.946l0.11,0.47l-0.477,0.077C41.334,23.314,40.705,23.373,40.163,23.373z M38.497,20.436    c-0.148,0.267-0.437,0.981-0.175,1.437c0.226,0.393,0.862,0.601,1.841,0.601l0,0c0.367,0,0.784-0.03,1.244-0.089    c-0.258-0.961-0.564-1.676-0.908-2.132c-0.271-0.357-0.544-0.531-0.834-0.531C39.168,19.721,38.66,20.229,38.497,20.436z"/></g><g><path d="M37.311,27.902L37.311,27.902c-1.341,0-2.223-0.355-2.623-1.056c-0.249-0.436-0.291-0.989-0.12-1.6    c0.119-0.421,0.295-0.727,0.314-0.76l0.014-0.021l0.015-0.021c0.021-0.027,0.214-0.278,0.525-0.534    c0.447-0.366,0.922-0.559,1.376-0.559c0.281,0,0.552,0.072,0.807,0.213c0.268,0.148,0.518,0.375,0.744,0.673    c0.477,0.629,0.875,1.62,1.187,2.946l0.109,0.47l-0.476,0.077C38.482,27.844,37.852,27.902,37.311,27.902z M35.644,24.966    c-0.148,0.268-0.436,0.981-0.174,1.437c0.226,0.393,0.862,0.6,1.841,0.6l0,0c0.368,0,0.785-0.03,1.244-0.089    c-0.259-0.961-0.564-1.677-0.909-2.132c-0.27-0.357-0.543-0.531-0.834-0.531C36.318,24.251,35.818,24.748,35.644,24.966z"/></g><g><path d="M36.102,33.808L36.102,33.808c-0.363,0-0.751-0.101-1.153-0.3c-0.286-0.142-0.474-0.282-0.495-0.298l-0.02-0.016    l-0.019-0.018c-0.029-0.028-0.299-0.29-0.533-0.684c-0.341-0.576-0.432-1.15-0.261-1.657c0.166-0.497,0.57-0.91,1.2-1.229    c0.671-0.339,1.629-0.583,2.848-0.724l0.479-0.056l0.021,0.481c0.091,1.99-0.183,3.291-0.837,3.975    C37.006,33.626,36.58,33.808,36.102,33.808z M35.019,32.508c0.11,0.077,0.602,0.4,1.083,0.4c0.236,0,0.421-0.078,0.582-0.246    c0.2-0.209,0.354-0.55,0.457-1.013c0.107-0.482,0.156-1.089,0.147-1.809c-2.168,0.322-2.695,0.93-2.813,1.278    C34.279,31.699,34.903,32.388,35.019,32.508z"/></g><g><path d="M40.819,36.313L40.819,36.313c-0.334,0-0.58-0.047-0.607-0.052l-0.024-0.005l-0.024-0.007    c-0.039-0.013-0.396-0.131-0.778-0.384c-0.559-0.37-0.89-0.846-0.959-1.377c-0.066-0.52,0.117-1.067,0.545-1.629    c0.456-0.598,1.212-1.235,2.247-1.894l0.407-0.259l0.23,0.424c0.555,1.024,0.9,1.909,1.026,2.631    c0.119,0.679,0.049,1.241-0.208,1.671c-0.202,0.34-0.51,0.586-0.916,0.732C41.482,36.263,41.167,36.313,40.819,36.313z     M40.416,35.384c0.06,0.009,0.212,0.03,0.403,0.03c0.001,0,0.001,0,0.001,0c0.374,0,0.865-0.077,1.083-0.443    c0.185-0.31,0.332-1.1-0.61-2.978c-1.81,1.236-2.019,2.013-1.973,2.377C39.396,34.978,40.258,35.325,40.416,35.384z"/></g><g><path d="M51.224,23.801L51.224,23.801c-0.539,0-0.999-0.204-1.329-0.591c-0.628-0.736-0.775-2.085-0.451-4.124l0.077-0.477    l0.47,0.109c1.195,0.277,2.119,0.627,2.748,1.039c0.591,0.387,0.946,0.843,1.056,1.355c0.111,0.524-0.043,1.083-0.447,1.618    c-0.276,0.365-0.573,0.595-0.605,0.62l-0.021,0.015l-0.021,0.013C52.67,23.397,51.98,23.801,51.224,23.801z M50.263,19.713    c-0.094,0.745-0.111,1.375-0.05,1.876c0.058,0.47,0.181,0.819,0.366,1.037c0.16,0.188,0.365,0.276,0.645,0.276    c0.442,0,0.886-0.226,0.993-0.283c0.129-0.107,0.826-0.722,0.697-1.32C52.836,20.94,52.38,20.277,50.263,19.713z"/></g><g><path d="M56.129,26.088L56.129,26.088c-0.446,0-0.9-0.175-1.351-0.52c-0.312-0.239-0.506-0.474-0.527-0.5l-0.017-0.02    l-0.013-0.021c-0.021-0.033-0.213-0.336-0.347-0.757c-0.196-0.612-0.17-1.173,0.074-1.621c0.2-0.367,0.537-0.649,1.003-0.839    c0.482-0.196,1.12-0.296,1.893-0.296c0.46,0,0.981,0.035,1.548,0.104l0.479,0.059l-0.092,0.473    c-0.269,1.383-0.627,2.373-1.098,3.028c-0.221,0.307-0.469,0.54-0.738,0.692C56.688,26.015,56.414,26.088,56.129,26.088z     M54.965,24.52c0.177,0.205,0.681,0.669,1.164,0.669l0,0c0.294,0,0.564-0.175,0.822-0.535c0.336-0.467,0.619-1.204,0.845-2.194    c-0.342-0.031-0.661-0.046-0.951-0.046c-0.656,0-1.179,0.077-1.554,0.23c-0.269,0.109-0.454,0.256-0.553,0.437    c-0.156,0.287-0.09,0.658-0.007,0.917C54.813,24.255,54.927,24.457,54.965,24.52z"/></g><g><g><path d="M72.452,14.986L72.452,14.986c-0.163,0-0.271-0.011-0.283-0.013l-0.025-0.002l-0.024-0.006     c-0.041-0.009-0.406-0.094-0.81-0.312c-0.589-0.318-0.962-0.763-1.078-1.286c-0.113-0.511,0.02-1.074,0.396-1.671     c0.4-0.636,1.097-1.338,2.068-2.087l0.382-0.294l0.268,0.402c0.66,0.994,1.088,1.862,1.271,2.58     c0.173,0.675,0.138,1.246-0.104,1.696c-0.21,0.392-0.578,0.684-1.063,0.845C73.076,14.96,72.701,14.986,72.452,14.986z      M72.292,14.082c0.031,0.002,0.087,0.005,0.16,0.005l0,0c0.298,0,1.018-0.051,1.268-0.52c0.172-0.32,0.271-1.118-0.858-2.94     c-1.691,1.393-1.831,2.185-1.752,2.544C71.239,13.77,72.131,14.038,72.292,14.082z"/></g></g><g><g><path d="M68.488,20.454L68.488,20.454c-0.555,0-1.075-0.279-1.549-0.828c-0.504-0.585-0.969-1.506-1.384-2.738l-0.153-0.457     l0.467-0.122c0.96-0.25,1.787-0.377,2.459-0.377c1.043,0,1.763,0.302,2.142,0.898c0.26,0.408,0.337,0.943,0.223,1.546     c-0.079,0.417-0.221,0.726-0.236,0.759l-0.012,0.023l-0.013,0.021c-0.021,0.032-0.202,0.323-0.513,0.619     C69.473,20.227,68.978,20.454,68.488,20.454z M66.572,17.063c0.33,0.886,0.682,1.55,1.049,1.976     c0.295,0.342,0.587,0.516,0.867,0.516l0,0c0.319,0,0.617-0.221,0.81-0.405c0.188-0.181,0.314-0.362,0.354-0.421     c0.119-0.272,0.334-0.986,0.058-1.418c-0.254-0.396-0.892-0.479-1.382-0.479C67.843,16.832,67.254,16.91,66.572,17.063z"/></g></g><g><g><path d="M65.292,25.612L65.292,25.612c-0.556,0-1.076-0.278-1.55-0.828c-0.504-0.585-0.969-1.506-1.384-2.738l-0.153-0.457     l0.467-0.121c0.96-0.25,1.788-0.377,2.459-0.377c1.043,0,1.764,0.302,2.142,0.898c0.26,0.408,0.337,0.943,0.223,1.545     c-0.079,0.417-0.221,0.726-0.237,0.759l-0.01,0.023l-0.014,0.021c-0.021,0.033-0.202,0.323-0.512,0.62     C66.275,25.386,65.78,25.612,65.292,25.612z M63.374,22.223c0.331,0.886,0.684,1.55,1.05,1.975     c0.295,0.342,0.586,0.516,0.868,0.516l0,0c0.319,0,0.616-0.22,0.809-0.405c0.188-0.18,0.315-0.361,0.355-0.421     c0.118-0.272,0.332-0.986,0.057-1.418c-0.253-0.396-0.892-0.479-1.382-0.479C64.646,21.991,64.057,22.068,63.374,22.223z"/></g></g><g><g><path d="M74.026,20.453L74.026,20.453c-1.007,0-1.707-0.295-2.082-0.876c-0.261-0.404-0.343-0.935-0.238-1.536     c0.073-0.417,0.209-0.725,0.225-0.759l0.011-0.023l0.013-0.022c0.02-0.033,0.2-0.33,0.508-0.632     c0.447-0.438,0.944-0.67,1.439-0.67c0.551,0,1.071,0.275,1.549,0.817c0.508,0.578,0.983,1.488,1.413,2.704l0.161,0.455     l-0.465,0.128C75.564,20.313,74.712,20.453,74.026,20.453z M72.739,17.676c-0.114,0.272-0.317,0.986-0.039,1.414     c0.2,0.308,0.646,0.463,1.326,0.463c0.498,0,1.107-0.087,1.818-0.258c-0.341-0.875-0.7-1.529-1.069-1.95     c-0.3-0.34-0.593-0.513-0.874-0.513c-0.32,0-0.617,0.225-0.809,0.413C72.904,17.43,72.778,17.616,72.739,17.676z"/></g></g><g><g><path d="M86.158,31.217L86.158,31.217c-0.432,0-0.876-0.161-1.321-0.479c-0.31-0.22-0.506-0.438-0.528-0.462l-0.016-0.019     l-0.016-0.021c-0.022-0.033-0.229-0.333-0.382-0.753c-0.223-0.614-0.213-1.181,0.025-1.642c0.207-0.399,0.575-0.705,1.096-0.911     c0.542-0.214,1.271-0.323,2.164-0.323c0.346,0,0.723,0.017,1.122,0.048l0.48,0.038l-0.072,0.478     c-0.214,1.421-0.54,2.44-0.998,3.114C87.189,31.056,86.578,31.217,86.158,31.217z M84.998,29.697     c0.18,0.19,0.685,0.621,1.16,0.622l0,0c0.3,0,0.564-0.176,0.812-0.54c0.325-0.479,0.584-1.237,0.771-2.259     c-0.195-0.009-0.383-0.014-0.561-0.014c-1.335,0-2.209,0.266-2.46,0.747C84.472,28.729,84.823,29.435,84.998,29.697z"/></g></g><g><g><path d="M80.333,31.427L80.333,31.427c-0.514,0-0.958-0.195-1.287-0.563c-0.639-0.715-0.839-2.046-0.61-4.069l0.055-0.479     l0.474,0.087c1.207,0.223,2.147,0.53,2.793,0.913c0.608,0.36,0.983,0.799,1.116,1.306c0.136,0.518,0.008,1.084-0.372,1.636     c-0.259,0.377-0.546,0.621-0.578,0.647l-0.019,0.016l-0.021,0.014C81.807,30.986,81.113,31.427,80.333,31.427z M79.282,27.385     c-0.059,0.736-0.049,1.357,0.031,1.852c0.076,0.468,0.212,0.814,0.402,1.029c0.161,0.179,0.356,0.262,0.617,0.263     c0.458,0,0.925-0.264,1.033-0.33c0.124-0.112,0.793-0.758,0.637-1.351C81.908,28.494,81.423,27.852,79.282,27.385z"/></g></g><g><g><path d="M85.882,36.644l-0.479-0.057c-1.219-0.144-2.176-0.39-2.847-0.73c-0.63-0.32-1.032-0.734-1.198-1.231     c-0.169-0.508-0.077-1.082,0.267-1.657c0.234-0.394,0.504-0.655,0.534-0.683l0.019-0.018l0.02-0.015     c0.021-0.016,0.209-0.155,0.494-0.296c0.401-0.198,0.788-0.298,1.15-0.298c0.479,0,0.906,0.182,1.234,0.526     c0.653,0.685,0.924,1.986,0.829,3.978L85.882,36.644z M82.761,32.956c-0.116,0.12-0.742,0.808-0.548,1.389     c0.117,0.349,0.644,0.957,2.81,1.285c0.011-0.721-0.036-1.329-0.143-1.811c-0.103-0.463-0.255-0.804-0.455-1.014     c-0.16-0.168-0.346-0.247-0.583-0.247C83.362,32.558,82.869,32.88,82.761,32.956z"/></g></g><g><g><path d="M83.531,41.81l-0.479-0.057c-1.219-0.144-2.177-0.39-2.847-0.729c-0.63-0.32-1.033-0.734-1.198-1.231     c-0.169-0.508-0.077-1.081,0.266-1.657c0.234-0.394,0.504-0.655,0.534-0.683l0.019-0.018l0.021-0.015     c0.021-0.016,0.209-0.156,0.494-0.296c0.4-0.198,0.788-0.299,1.15-0.299c0.479,0,0.905,0.182,1.233,0.526     c0.653,0.686,0.925,1.986,0.829,3.978L83.531,41.81z M80.409,38.122c-0.115,0.121-0.742,0.808-0.547,1.389     c0.117,0.349,0.643,0.958,2.81,1.285c0.011-0.721-0.037-1.329-0.144-1.811c-0.102-0.463-0.255-0.804-0.455-1.014     c-0.16-0.168-0.345-0.247-0.582-0.247C81.012,37.724,80.518,38.047,80.409,38.122z"/></g></g><g><g><path d="M78.183,46.984l-0.43-0.219c-1.095-0.556-1.908-1.117-2.419-1.667c-0.481-0.518-0.716-1.045-0.699-1.569     c0.017-0.536,0.301-1.042,0.821-1.463c0.356-0.289,0.699-0.44,0.737-0.457l0.023-0.01l0.023-0.007     c0.019-0.005,0.424-0.126,0.918-0.126c0.746,0,1.32,0.27,1.659,0.781c0.271,0.408,0.377,0.958,0.316,1.635     c-0.064,0.719-0.32,1.614-0.763,2.659L78.183,46.984z M76.526,42.445c-0.149,0.073-0.976,0.502-0.993,1.115     c-0.011,0.367,0.273,1.12,2.193,2.175c0.738-1.917,0.539-2.694,0.341-2.992c-0.166-0.251-0.473-0.379-0.909-0.379     C76.863,42.364,76.608,42.424,76.526,42.445z"/></g></g><g><g><path d="M70.389,47.348l-0.215-0.432c-0.517-1.032-0.832-1.921-0.937-2.643c-0.099-0.678-0.016-1.236,0.245-1.659     c0.198-0.322,0.492-0.557,0.873-0.697c0.268-0.099,0.573-0.149,0.911-0.149c0.39,0,0.686,0.066,0.719,0.074l0.024,0.006     l0.023,0.009c0.039,0.014,0.391,0.144,0.765,0.409c0.546,0.388,0.861,0.875,0.913,1.408c0.05,0.522-0.151,1.063-0.599,1.611     c-0.476,0.582-1.252,1.193-2.309,1.818L70.389,47.348z M71.267,42.667c-0.347,0-0.806,0.073-1.02,0.419     c-0.189,0.306-0.354,1.092,0.518,2.986c1.85-1.175,2.085-1.944,2.052-2.311c-0.058-0.61-0.908-0.986-1.063-1.049     C71.685,42.699,71.496,42.667,71.267,42.667z"/></g></g><g><g><path d="M74.184,41.064L74.184,41.064c-0.783,0-1.376-0.281-1.717-0.811c-0.267-0.415-0.361-0.969-0.282-1.647     c0.083-0.721,0.367-1.613,0.845-2.653l0.201-0.438l0.423,0.231c1.077,0.589,1.874,1.174,2.368,1.74     c0.465,0.532,0.685,1.067,0.651,1.589c-0.033,0.535-0.332,1.032-0.865,1.438c-0.364,0.278-0.713,0.419-0.751,0.434l-0.022,0.009     l-0.025,0.007C74.971,40.974,74.625,41.064,74.184,41.064z M73.649,36.777c-0.802,1.907-0.619,2.688-0.426,2.99     c0.169,0.263,0.492,0.397,0.96,0.397c0.267,0,0.491-0.046,0.564-0.063c0.151-0.068,0.992-0.472,1.027-1.084     C75.798,38.651,75.537,37.89,73.649,36.777z"/></g></g><g><g><path d="M77.687,36.59C77.687,36.59,77.687,36.59,77.687,36.59c-0.542,0-1.063-0.268-1.548-0.796     c-0.518-0.562-1.013-1.447-1.475-2.63l-0.175-0.449l0.461-0.144c1.061-0.33,1.962-0.497,2.676-0.497     c0.936,0,1.596,0.28,1.966,0.833c0.265,0.395,0.357,0.918,0.271,1.515c-0.061,0.414-0.185,0.722-0.199,0.756l-0.01,0.023     l-0.012,0.022c-0.019,0.035-0.194,0.345-0.501,0.662C78.697,36.347,78.193,36.59,77.687,36.59z M75.688,33.292     c0.362,0.848,0.736,1.484,1.112,1.893c0.309,0.336,0.607,0.506,0.887,0.506l0,0c0.528,0,1.001-0.614,1.156-0.88     c0.104-0.271,0.283-0.985,0.001-1.406c-0.193-0.287-0.603-0.433-1.218-0.433C77.106,32.973,76.455,33.08,75.688,33.292z"/></g></g><g><g><path d="M72.209,25.809L72.209,25.809c-1.006,0-1.706-0.295-2.081-0.876c-0.261-0.404-0.344-0.935-0.238-1.536     c0.072-0.417,0.209-0.725,0.225-0.759l0.011-0.023l0.012-0.021c0.021-0.033,0.2-0.33,0.51-0.632     c0.446-0.439,0.943-0.671,1.438-0.671c0.551,0,1.071,0.275,1.549,0.818c0.508,0.578,0.983,1.488,1.413,2.705l0.161,0.455     l-0.466,0.128C73.748,25.669,72.896,25.809,72.209,25.809z M70.923,23.032c-0.114,0.273-0.316,0.986-0.039,1.415     c0.2,0.307,0.646,0.463,1.325,0.463c0.498,0,1.108-0.086,1.819-0.258c-0.341-0.875-0.7-1.529-1.07-1.95     c-0.299-0.34-0.592-0.512-0.873-0.512c-0.321,0-0.617,0.225-0.809,0.413C71.088,22.786,70.962,22.972,70.923,23.032z"/></g></g><g><g><path d="M68.544,31.59L68.544,31.59c-1.007,0-1.707-0.295-2.082-0.877c-0.261-0.404-0.344-0.936-0.238-1.536     c0.072-0.417,0.209-0.725,0.225-0.759l0.011-0.023l0.013-0.021c0.02-0.033,0.199-0.33,0.509-0.633     c0.446-0.438,0.944-0.67,1.438-0.67c0.551,0,1.071,0.275,1.549,0.818c0.508,0.578,0.983,1.488,1.413,2.704l0.161,0.455     l-0.466,0.128C70.082,31.45,69.23,31.59,68.544,31.59z M67.257,28.813c-0.114,0.273-0.316,0.986-0.039,1.415     c0.2,0.308,0.646,0.463,1.326,0.463c0.497,0,1.108-0.086,1.818-0.258c-0.341-0.875-0.7-1.529-1.069-1.95     c-0.3-0.34-0.593-0.512-0.874-0.512c-0.32,0-0.617,0.225-0.809,0.413C67.422,28.567,67.296,28.752,67.257,28.813z"/></g></g><g><g><path d="M66.068,36.963L66.068,36.963c-0.55,0-1.07-0.28-1.504-0.809c-0.295-0.361-0.451-0.713-0.468-0.751l-0.01-0.023     l-0.007-0.024c-0.011-0.034-0.1-0.339-0.122-0.743c-0.031-0.58,0.097-1.08,0.368-1.446c0.171-0.229,0.396-0.408,0.67-0.529     c0.285-0.126,0.627-0.19,1.015-0.19c0.779,0,1.795,0.263,3.018,0.781l0.445,0.188l-0.22,0.43c-0.547,1.076-1.1,1.881-1.641,2.393     C67.104,36.719,66.584,36.963,66.068,36.963z M64.933,35.068c0.034,0.072,0.151,0.306,0.34,0.531     c0.257,0.309,0.525,0.465,0.796,0.465c0.365,0,1.112-0.297,2.156-2.193c-0.905-0.349-1.648-0.525-2.214-0.525     c-0.464,0-0.787,0.12-0.962,0.356C64.752,34.1,64.862,34.812,64.933,35.068z"/></g></g><g><path d="M49.955,29.14l-0.043-0.48c-0.179-2.012,0.047-3.333,0.691-4.037c0.328-0.359,0.767-0.549,1.267-0.549    c0.8,0,1.508,0.474,1.587,0.528l0.021,0.015l0.02,0.017c0.03,0.026,0.311,0.276,0.562,0.66c0.365,0.561,0.481,1.13,0.333,1.645    c-0.144,0.503-0.529,0.934-1.146,1.28c-0.655,0.367-1.603,0.652-2.813,0.846L49.955,29.14z M51.87,24.973    c-0.251,0-0.442,0.082-0.603,0.256c-0.195,0.213-0.337,0.557-0.422,1.023c-0.09,0.49-0.114,1.106-0.073,1.838    c2.151-0.417,2.652-1.046,2.755-1.399c0.171-0.588-0.484-1.25-0.604-1.365C52.813,25.257,52.337,24.973,51.87,24.973z"/></g><g><path d="M57.39,31.169C57.389,31.169,57.389,31.169,57.39,31.169c-0.452,0-0.844-0.071-1.162-0.211    c-0.309-0.135-0.554-0.335-0.731-0.594c-0.266-0.388-0.367-0.907-0.294-1.5c0.052-0.412,0.168-0.721,0.181-0.754l0.01-0.023    l0.012-0.023c0.019-0.035,0.189-0.354,0.494-0.682c0.443-0.476,0.95-0.728,1.467-0.728c0.535,0,1.057,0.263,1.548,0.781    c0.522,0.551,1.032,1.418,1.514,2.577l0.186,0.445l-0.457,0.153C59.051,30.982,58.121,31.169,57.39,31.169z M56.213,28.46    c-0.098,0.273-0.26,0.983,0.026,1.398c0.188,0.273,0.575,0.413,1.149,0.413c0,0,0,0,0.001,0c0.533,0,1.209-0.122,2.012-0.363    c-0.377-0.83-0.76-1.452-1.141-1.854c-0.315-0.332-0.616-0.5-0.896-0.5c-0.328,0-0.621,0.239-0.809,0.44    C56.371,28.195,56.249,28.396,56.213,28.46z"/></g><g><path d="M51.306,35.62C51.305,35.62,51.305,35.62,51.306,35.62c-0.834,0-1.89-0.348-3.228-1.063l-0.425-0.227l0.256-0.408    c0.612-0.974,1.207-1.703,1.767-2.167c0.526-0.436,1.044-0.658,1.54-0.658c1.387,0,1.947,1.667,1.971,1.738l0.008,0.024    l0.006,0.024c0.006,0.033,0.065,0.333,0.055,0.725c-0.017,0.568-0.168,1.031-0.45,1.377c-0.164,0.202-0.37,0.358-0.612,0.465    C51.935,35.563,51.637,35.62,51.306,35.62z M48.938,33.989c0.985,0.486,1.78,0.732,2.367,0.732c0,0,0,0,0.001,0    c0.371,0,0.634-0.099,0.8-0.302c0.308-0.375,0.265-1.06,0.218-1.328c-0.029-0.079-0.132-0.338-0.312-0.588    c-0.242-0.337-0.51-0.507-0.797-0.507C50.855,31.996,50.1,32.266,48.938,33.989z"/></g><g><path d="M53.497,41.718l-0.209-0.435c-0.5-1.036-0.802-1.927-0.898-2.648c-0.09-0.678-0.001-1.235,0.262-1.654    c0.342-0.543,0.947-0.831,1.755-0.831c0.412,0,0.73,0.077,0.765,0.085l0.024,0.006l0.024,0.009    c0.039,0.015,0.389,0.149,0.759,0.42c0.54,0.396,0.85,0.887,0.893,1.421c0.043,0.521-0.166,1.061-0.621,1.602    c-0.484,0.575-1.27,1.175-2.335,1.785L53.497,41.718z M54.406,37.05c-0.488,0-0.823,0.138-0.993,0.41    c-0.191,0.304-0.364,1.088,0.478,2.988c1.869-1.15,2.114-1.917,2.084-2.284c-0.021-0.27-0.199-0.528-0.528-0.768    c-0.224-0.165-0.445-0.263-0.518-0.293C54.858,37.088,54.652,37.05,54.406,37.05z"/></g><g><path d="M61.136,42.848l-0.42-0.239C59.65,42,58.863,41.4,58.38,40.826c-0.456-0.541-0.664-1.079-0.623-1.601    c0.043-0.534,0.352-1.026,0.892-1.422c0.369-0.271,0.719-0.406,0.758-0.42l0.023-0.009l0.025-0.006    c0.035-0.009,0.354-0.085,0.769-0.085c0.805,0,1.411,0.287,1.752,0.829c0.264,0.419,0.352,0.976,0.262,1.654    c-0.095,0.721-0.396,1.612-0.894,2.648L61.136,42.848z M59.699,38.234c-0.153,0.065-0.998,0.454-1.046,1.065    c-0.028,0.367,0.219,1.132,2.086,2.279c0.839-1.9,0.666-2.684,0.476-2.988c-0.171-0.271-0.505-0.409-0.991-0.409    C59.977,38.181,59.771,38.219,59.699,38.234z"/></g><g><path d="M57.906,35.863L57.906,35.863c-0.563,0-1.087-0.29-1.516-0.839c-0.297-0.38-0.45-0.761-0.456-0.777l-0.01-0.023    l-0.007-0.024c-0.009-0.034-0.089-0.338-0.1-0.739c-0.017-0.574,0.119-1.066,0.394-1.425c0.169-0.22,0.388-0.391,0.65-0.507    c0.276-0.122,0.602-0.184,0.97-0.184c0.805,0,1.817,0.284,3.094,0.868l0.438,0.201l-0.231,0.423    c-0.568,1.044-1.135,1.825-1.683,2.323C58.935,35.626,58.415,35.863,57.906,35.863z M56.779,33.938    c0.032,0.074,0.146,0.315,0.331,0.548c0.253,0.317,0.521,0.478,0.796,0.478l0,0c0.363,0,1.113-0.289,2.196-2.131    c-0.934-0.392-1.696-0.589-2.271-0.589c-0.434,0-0.73,0.11-0.904,0.336C56.628,32.97,56.714,33.667,56.779,33.938z"/></g></g></svg>
